<mxfile host="app.diagrams.net" modified="2022-03-06T16:54:30.878Z" agent="5.0 (Windows NT 10.0; Win64; x64) AppleWebKit/537.36 (KHTML, like Gecko) Chrome/99.0.4844.51 Safari/537.36 Edg/99.0.1150.30" etag="rSWDtR8w8ZIRXczTvQ_7" version="16.6.6" type="github">
  <diagram id="eaP1uro2qp2I-WsPj1LU" name="Page-1">
    <mxGraphModel dx="4224" dy="3331" grid="1" gridSize="10" guides="1" tooltips="1" connect="1" arrows="1" fold="1" page="1" pageScale="1" pageWidth="827" pageHeight="1169" math="0" shadow="0">
      <root>
        <mxCell id="0" />
        <mxCell id="1" style="" parent="0" />
        <mxCell id="KE0D6dZM0qTWaY7kMRqU-151" value="" style="strokeWidth=1;shadow=0;dashed=0;align=center;html=1;shape=mxgraph.mockup.containers.browserWindow;rSize=0;strokeColor2=#008cff;strokeColor3=#c4c4c4;mainText=,;recursiveResize=0;fontSize=18;fontStyle=1" parent="1" vertex="1">
          <mxGeometry x="-1640" y="1130" width="1921.78" height="1100" as="geometry" />
        </mxCell>
        <mxCell id="KE0D6dZM0qTWaY7kMRqU-152" value="&lt;font style=&quot;font-size: 15px&quot;&gt;Моя Страница&lt;/font&gt;" style="strokeWidth=1;shadow=0;dashed=0;align=center;html=1;shape=mxgraph.mockup.containers.anchor;fontSize=17;fontColor=#666666;align=left;" parent="KE0D6dZM0qTWaY7kMRqU-151" vertex="1">
          <mxGeometry x="60" y="12" width="110" height="26" as="geometry" />
        </mxCell>
        <mxCell id="KE0D6dZM0qTWaY7kMRqU-153" value="http://localhost:5000/person/4" style="strokeWidth=1;shadow=0;dashed=0;align=center;html=1;shape=mxgraph.mockup.containers.anchor;rSize=0;fontSize=17;fontColor=#666666;align=left;" parent="KE0D6dZM0qTWaY7kMRqU-151" vertex="1">
          <mxGeometry x="130" y="60" width="250" height="26" as="geometry" />
        </mxCell>
        <mxCell id="KE0D6dZM0qTWaY7kMRqU-156" value="&lt;span style=&quot;font-size: 24px&quot;&gt;Vkollege&lt;/span&gt;" style="rounded=0;whiteSpace=wrap;html=1;fontSize=10;fillColor=#dae8fc;strokeColor=#6c8ebf;align=center;" parent="KE0D6dZM0qTWaY7kMRqU-151" vertex="1">
          <mxGeometry y="110" width="1920" height="80" as="geometry" />
        </mxCell>
        <mxCell id="KE0D6dZM0qTWaY7kMRqU-158" value="" style="rounded=0;whiteSpace=wrap;html=1;fontSize=24;" parent="KE0D6dZM0qTWaY7kMRqU-151" vertex="1">
          <mxGeometry x="370" y="190" width="1200" height="890" as="geometry" />
        </mxCell>
        <mxCell id="1dLxYRQWP7nbCFLP-ZYz-1" value="" style="rounded=0;whiteSpace=wrap;html=1;fillColor=#d5e8d4;strokeColor=#82b366;" parent="KE0D6dZM0qTWaY7kMRqU-151" vertex="1">
          <mxGeometry x="370" y="190" width="240" height="890" as="geometry" />
        </mxCell>
        <mxCell id="1dLxYRQWP7nbCFLP-ZYz-3" value="Моя страница (карта студента)" style="text;html=1;strokeColor=none;fillColor=none;align=left;verticalAlign=middle;whiteSpace=wrap;rounded=0;fontStyle=1" parent="KE0D6dZM0qTWaY7kMRqU-151" vertex="1">
          <mxGeometry x="390" y="210" width="200" height="30" as="geometry" />
        </mxCell>
        <mxCell id="1dLxYRQWP7nbCFLP-ZYz-4" value="&lt;h1&gt;Тимергалиев Адель Илназович (рейтинг 18 290)&lt;/h1&gt;Lorem ipsum dolor sit amet, consectetur adipisicing elit, sed do eiusmod tempor incididunt ut labore et dolore magna aliqua.Lorem ipsum dolor sit amet, consectetur adipisicing elit, sed do eiusmod tempor incididunt ut labore et dolore magna aliqua.Lorem ipsum dolor sit amet, consectetur adipisicing elit, sed do eiusmod tempor incididunt ut labore et dolore magna aliqua." style="text;html=1;strokeColor=none;fillColor=none;spacing=5;spacingTop=-20;whiteSpace=wrap;overflow=hidden;rounded=0;" parent="KE0D6dZM0qTWaY7kMRqU-151" vertex="1">
          <mxGeometry x="920" y="210" width="620" height="250" as="geometry" />
        </mxCell>
        <mxCell id="1dLxYRQWP7nbCFLP-ZYz-13" value="" style="rounded=0;whiteSpace=wrap;html=1;fillColor=#f5f5f5;fontColor=#333333;strokeColor=#666666;" parent="KE0D6dZM0qTWaY7kMRqU-151" vertex="1">
          <mxGeometry x="610" y="190" width="290" height="890" as="geometry" />
        </mxCell>
        <mxCell id="1dLxYRQWP7nbCFLP-ZYz-5" value="фото пользователя" style="rounded=0;whiteSpace=wrap;html=1;" parent="KE0D6dZM0qTWaY7kMRqU-151" vertex="1">
          <mxGeometry x="630" y="210" width="250" height="250" as="geometry" />
        </mxCell>
        <mxCell id="1dLxYRQWP7nbCFLP-ZYz-6" value="Изменить" style="rounded=0;whiteSpace=wrap;html=1;" parent="KE0D6dZM0qTWaY7kMRqU-151" vertex="1">
          <mxGeometry x="630" y="480" width="250" height="50" as="geometry" />
        </mxCell>
        <mxCell id="1dLxYRQWP7nbCFLP-ZYz-7" value="Добавить в друзья/Удалить из друзей" style="rounded=0;whiteSpace=wrap;html=1;" parent="KE0D6dZM0qTWaY7kMRqU-151" vertex="1">
          <mxGeometry x="630" y="550" width="250" height="50" as="geometry" />
        </mxCell>
        <mxCell id="1dLxYRQWP7nbCFLP-ZYz-8" value="Написать" style="rounded=0;whiteSpace=wrap;html=1;" parent="KE0D6dZM0qTWaY7kMRqU-151" vertex="1">
          <mxGeometry x="630" y="620" width="250" height="50" as="geometry" />
        </mxCell>
        <mxCell id="1dLxYRQWP7nbCFLP-ZYz-12" value="Группа: 09.02.07 -&amp;nbsp; 3 (2019)&lt;br&gt;Куратор: Татьяна Борисовна" style="text;html=1;strokeColor=none;fillColor=none;align=left;verticalAlign=middle;whiteSpace=wrap;rounded=0;" parent="KE0D6dZM0qTWaY7kMRqU-151" vertex="1">
          <mxGeometry x="920" y="330" width="180" height="50" as="geometry" />
        </mxCell>
        <mxCell id="1dLxYRQWP7nbCFLP-ZYz-14" value="Чат с преподавателем" style="text;html=1;strokeColor=none;fillColor=none;align=left;verticalAlign=middle;whiteSpace=wrap;rounded=0;" parent="KE0D6dZM0qTWaY7kMRqU-151" vertex="1">
          <mxGeometry x="410" y="270" width="200" height="30" as="geometry" />
        </mxCell>
        <mxCell id="1dLxYRQWP7nbCFLP-ZYz-16" value="Чат свободный" style="text;html=1;strokeColor=none;fillColor=none;align=left;verticalAlign=middle;whiteSpace=wrap;rounded=0;" parent="KE0D6dZM0qTWaY7kMRqU-151" vertex="1">
          <mxGeometry x="410" y="350" width="200" height="30" as="geometry" />
        </mxCell>
        <mxCell id="1dLxYRQWP7nbCFLP-ZYz-17" value="Чат старосты" style="text;html=1;strokeColor=none;fillColor=none;align=left;verticalAlign=middle;whiteSpace=wrap;rounded=0;" parent="KE0D6dZM0qTWaY7kMRqU-151" vertex="1">
          <mxGeometry x="410" y="310" width="200" height="30" as="geometry" />
        </mxCell>
        <mxCell id="1dLxYRQWP7nbCFLP-ZYz-18" value="&lt;b style=&quot;font-size: 12px;&quot;&gt;Чаты группы&lt;/b&gt;" style="text;html=1;strokeColor=none;fillColor=none;align=left;verticalAlign=middle;whiteSpace=wrap;rounded=0;fontSize=12;" parent="KE0D6dZM0qTWaY7kMRqU-151" vertex="1">
          <mxGeometry x="390" y="240" width="200" height="30" as="geometry" />
        </mxCell>
        <mxCell id="1dLxYRQWP7nbCFLP-ZYz-19" value="&lt;b style=&quot;font-size: 12px&quot;&gt;Свободные чаты&lt;/b&gt;" style="text;html=1;strokeColor=none;fillColor=none;align=left;verticalAlign=middle;whiteSpace=wrap;rounded=0;fontSize=12;" parent="KE0D6dZM0qTWaY7kMRqU-151" vertex="1">
          <mxGeometry x="390" y="380" width="200" height="30" as="geometry" />
        </mxCell>
        <mxCell id="1dLxYRQWP7nbCFLP-ZYz-21" value="" style="rounded=0;whiteSpace=wrap;html=1;fontSize=12;fillColor=none;" parent="KE0D6dZM0qTWaY7kMRqU-151" vertex="1">
          <mxGeometry x="920" y="550" width="620" height="370" as="geometry" />
        </mxCell>
        <mxCell id="1dLxYRQWP7nbCFLP-ZYz-22" value="&lt;h1&gt;Пост №1&lt;/h1&gt;Lorem ipsum dolor sit amet, consectetur adipisicing elit, sed do eiusmod tempor incididunt ut labore et dolore magna aliqua.Lorem ipsum dolor sit amet, consectetur adipisicing elit, sed do eiusmod tempor incididunt ut labore et dolore magna aliqua.Lorem ipsum dolor sit amet, consectetur adipisicing elit, sed do eiusmod tempor incididunt ut labore et dolore magna aliqua." style="text;html=1;strokeColor=none;fillColor=none;spacing=5;spacingTop=-20;whiteSpace=wrap;overflow=hidden;rounded=0;" parent="KE0D6dZM0qTWaY7kMRqU-151" vertex="1">
          <mxGeometry x="930" y="560" width="600" height="120" as="geometry" />
        </mxCell>
        <mxCell id="1dLxYRQWP7nbCFLP-ZYz-23" value="" style="rounded=0;whiteSpace=wrap;html=1;fontSize=12;fillColor=none;" parent="KE0D6dZM0qTWaY7kMRqU-151" vertex="1">
          <mxGeometry x="930" y="680" width="170" height="180" as="geometry" />
        </mxCell>
        <mxCell id="1dLxYRQWP7nbCFLP-ZYz-24" value="" style="rounded=0;whiteSpace=wrap;html=1;fontSize=12;fillColor=none;" parent="KE0D6dZM0qTWaY7kMRqU-151" vertex="1">
          <mxGeometry x="1120" y="680" width="170" height="180" as="geometry" />
        </mxCell>
        <mxCell id="1dLxYRQWP7nbCFLP-ZYz-25" value="" style="rounded=0;whiteSpace=wrap;html=1;fontSize=12;fillColor=none;" parent="KE0D6dZM0qTWaY7kMRqU-151" vertex="1">
          <mxGeometry x="1310" y="680" width="170" height="180" as="geometry" />
        </mxCell>
        <mxCell id="1dLxYRQWP7nbCFLP-ZYz-29" value="" style="rounded=0;whiteSpace=wrap;html=1;fontSize=12;fillColor=none;" parent="KE0D6dZM0qTWaY7kMRqU-151" vertex="1">
          <mxGeometry x="1500" y="680" width="40" height="180" as="geometry" />
        </mxCell>
        <mxCell id="1dLxYRQWP7nbCFLP-ZYz-38" value="Лайков: 127" style="text;html=1;strokeColor=none;fillColor=none;align=left;verticalAlign=middle;whiteSpace=wrap;rounded=0;fontSize=12;" parent="KE0D6dZM0qTWaY7kMRqU-151" vertex="1">
          <mxGeometry x="930" y="870" width="99.11" height="30" as="geometry" />
        </mxCell>
        <mxCell id="1dLxYRQWP7nbCFLP-ZYz-39" value="Комментарии(кликнуть чтобы открыть)" style="text;html=1;strokeColor=none;fillColor=none;align=left;verticalAlign=middle;whiteSpace=wrap;rounded=0;fontSize=12;" parent="KE0D6dZM0qTWaY7kMRqU-151" vertex="1">
          <mxGeometry x="1020" y="870" width="239.11" height="30" as="geometry" />
        </mxCell>
        <mxCell id="1dLxYRQWP7nbCFLP-ZYz-40" value="" style="ellipse;whiteSpace=wrap;html=1;aspect=fixed;fontSize=12;fillColor=none;" parent="KE0D6dZM0qTWaY7kMRqU-151" vertex="1">
          <mxGeometry x="990" y="930" width="40" height="40" as="geometry" />
        </mxCell>
        <mxCell id="1dLxYRQWP7nbCFLP-ZYz-41" value="Тимергалиев Адель" style="text;html=1;strokeColor=none;fillColor=none;align=left;verticalAlign=middle;whiteSpace=wrap;rounded=0;fontSize=12;fontStyle=1" parent="KE0D6dZM0qTWaY7kMRqU-151" vertex="1">
          <mxGeometry x="1040" y="930" width="130" height="20" as="geometry" />
        </mxCell>
        <mxCell id="1dLxYRQWP7nbCFLP-ZYz-42" value="em ipsum dolor sit amet, consectetur adipisicing elit, sed do eiusmod tempor incididunt ut labore et dolore magna aliqua.Lorem ipsum dolor sit amet, consectetur adipisicing elit, sed do eiusmod tempor incididunt ut labore et dolore magna aliqua.Lorem ipsum dolor sit amet, consectetur adipisicing elit, sed do eiusmod tempor incididunt ut labore et dolore magna aliqua." style="text;html=1;strokeColor=none;fillColor=none;align=left;verticalAlign=middle;whiteSpace=wrap;rounded=0;fontSize=12;" parent="KE0D6dZM0qTWaY7kMRqU-151" vertex="1">
          <mxGeometry x="1040" y="940" width="290" height="140" as="geometry" />
        </mxCell>
        <mxCell id="1dLxYRQWP7nbCFLP-ZYz-78" value="&lt;b style=&quot;font-size: 12px&quot;&gt;Дневник&lt;/b&gt;" style="text;html=1;strokeColor=none;fillColor=none;align=left;verticalAlign=middle;whiteSpace=wrap;rounded=0;fontSize=12;" parent="KE0D6dZM0qTWaY7kMRqU-151" vertex="1">
          <mxGeometry x="390" y="410" width="200" height="30" as="geometry" />
        </mxCell>
        <mxCell id="1dLxYRQWP7nbCFLP-ZYz-111" value="Написать пост" style="rounded=0;whiteSpace=wrap;html=1;fontSize=15;fillColor=none;align=left;verticalAlign=top;" parent="KE0D6dZM0qTWaY7kMRqU-151" vertex="1">
          <mxGeometry x="920" y="390" width="460" height="70" as="geometry" />
        </mxCell>
        <mxCell id="1dLxYRQWP7nbCFLP-ZYz-112" value="Написать" style="rounded=0;whiteSpace=wrap;html=1;fontSize=15;fillColor=none;" parent="KE0D6dZM0qTWaY7kMRqU-151" vertex="1">
          <mxGeometry x="1400" y="390" width="120" height="35" as="geometry" />
        </mxCell>
        <mxCell id="1dLxYRQWP7nbCFLP-ZYz-114" value="Выбрать фото" style="rounded=0;whiteSpace=wrap;html=1;fontSize=15;fillColor=none;" parent="KE0D6dZM0qTWaY7kMRqU-151" vertex="1">
          <mxGeometry x="1400" y="455" width="120" height="35" as="geometry" />
        </mxCell>
        <mxCell id="1dLxYRQWP7nbCFLP-ZYz-115" value="фото" style="rounded=0;whiteSpace=wrap;html=1;fontSize=15;fillColor=none;" parent="KE0D6dZM0qTWaY7kMRqU-151" vertex="1">
          <mxGeometry x="920" y="470" width="50" height="60" as="geometry" />
        </mxCell>
        <mxCell id="1dLxYRQWP7nbCFLP-ZYz-192" value="фото" style="rounded=0;whiteSpace=wrap;html=1;fontSize=15;fillColor=none;" parent="KE0D6dZM0qTWaY7kMRqU-151" vertex="1">
          <mxGeometry x="990" y="470" width="50" height="60" as="geometry" />
        </mxCell>
        <mxCell id="1dLxYRQWP7nbCFLP-ZYz-193" value="фото" style="rounded=0;whiteSpace=wrap;html=1;fontSize=15;fillColor=none;" parent="KE0D6dZM0qTWaY7kMRqU-151" vertex="1">
          <mxGeometry x="1060" y="470" width="50" height="60" as="geometry" />
        </mxCell>
        <mxCell id="1dLxYRQWP7nbCFLP-ZYz-194" value="фото" style="rounded=0;whiteSpace=wrap;html=1;fontSize=15;fillColor=none;" parent="KE0D6dZM0qTWaY7kMRqU-151" vertex="1">
          <mxGeometry x="1125" y="470" width="50" height="60" as="geometry" />
        </mxCell>
        <mxCell id="1dLxYRQWP7nbCFLP-ZYz-195" value="фото" style="rounded=0;whiteSpace=wrap;html=1;fontSize=15;fillColor=none;" parent="KE0D6dZM0qTWaY7kMRqU-151" vertex="1">
          <mxGeometry x="1190" y="470" width="50" height="60" as="geometry" />
        </mxCell>
        <mxCell id="1dLxYRQWP7nbCFLP-ZYz-196" value="фото" style="rounded=0;whiteSpace=wrap;html=1;fontSize=15;fillColor=none;" parent="KE0D6dZM0qTWaY7kMRqU-151" vertex="1">
          <mxGeometry x="1259.11" y="470" width="50" height="60" as="geometry" />
        </mxCell>
        <mxCell id="1dLxYRQWP7nbCFLP-ZYz-197" value="фото" style="rounded=0;whiteSpace=wrap;html=1;fontSize=15;fillColor=none;" parent="KE0D6dZM0qTWaY7kMRqU-151" vertex="1">
          <mxGeometry x="1330" y="470" width="50" height="60" as="geometry" />
        </mxCell>
        <mxCell id="Ds0_8YYltSqKF31_-xEG-1" value="teacher" style="shape=table;startSize=30;container=1;collapsible=1;childLayout=tableLayout;fixedRows=1;rowLines=0;fontStyle=1;align=center;resizeLast=1;" parent="1" vertex="1">
          <mxGeometry x="-1340" y="270" width="180" height="280" as="geometry" />
        </mxCell>
        <mxCell id="Ds0_8YYltSqKF31_-xEG-2" value="" style="shape=tableRow;horizontal=0;startSize=0;swimlaneHead=0;swimlaneBody=0;fillColor=none;collapsible=0;dropTarget=0;points=[[0,0.5],[1,0.5]];portConstraint=eastwest;top=0;left=0;right=0;bottom=1;" parent="Ds0_8YYltSqKF31_-xEG-1" vertex="1">
          <mxGeometry y="30" width="180" height="30" as="geometry" />
        </mxCell>
        <mxCell id="Ds0_8YYltSqKF31_-xEG-3" value="PK" style="shape=partialRectangle;connectable=0;fillColor=none;top=0;left=0;bottom=0;right=0;fontStyle=1;overflow=hidden;" parent="Ds0_8YYltSqKF31_-xEG-2" vertex="1">
          <mxGeometry width="30" height="30" as="geometry">
            <mxRectangle width="30" height="30" as="alternateBounds" />
          </mxGeometry>
        </mxCell>
        <mxCell id="Ds0_8YYltSqKF31_-xEG-4" value="teacher_id" style="shape=partialRectangle;connectable=0;fillColor=none;top=0;left=0;bottom=0;right=0;align=left;spacingLeft=6;fontStyle=5;overflow=hidden;" parent="Ds0_8YYltSqKF31_-xEG-2" vertex="1">
          <mxGeometry x="30" width="150" height="30" as="geometry">
            <mxRectangle width="150" height="30" as="alternateBounds" />
          </mxGeometry>
        </mxCell>
        <mxCell id="Ds0_8YYltSqKF31_-xEG-8" value="" style="shape=tableRow;horizontal=0;startSize=0;swimlaneHead=0;swimlaneBody=0;fillColor=none;collapsible=0;dropTarget=0;points=[[0,0.5],[1,0.5]];portConstraint=eastwest;top=0;left=0;right=0;bottom=0;" parent="Ds0_8YYltSqKF31_-xEG-1" vertex="1">
          <mxGeometry y="60" width="180" height="30" as="geometry" />
        </mxCell>
        <mxCell id="Ds0_8YYltSqKF31_-xEG-9" value="" style="shape=partialRectangle;connectable=0;fillColor=none;top=0;left=0;bottom=0;right=0;editable=1;overflow=hidden;" parent="Ds0_8YYltSqKF31_-xEG-8" vertex="1">
          <mxGeometry width="30" height="30" as="geometry">
            <mxRectangle width="30" height="30" as="alternateBounds" />
          </mxGeometry>
        </mxCell>
        <mxCell id="Ds0_8YYltSqKF31_-xEG-10" value="name" style="shape=partialRectangle;connectable=0;fillColor=none;top=0;left=0;bottom=0;right=0;align=left;spacingLeft=6;overflow=hidden;" parent="Ds0_8YYltSqKF31_-xEG-8" vertex="1">
          <mxGeometry x="30" width="150" height="30" as="geometry">
            <mxRectangle width="150" height="30" as="alternateBounds" />
          </mxGeometry>
        </mxCell>
        <mxCell id="Ds0_8YYltSqKF31_-xEG-220" value="" style="shape=tableRow;horizontal=0;startSize=0;swimlaneHead=0;swimlaneBody=0;fillColor=none;collapsible=0;dropTarget=0;points=[[0,0.5],[1,0.5]];portConstraint=eastwest;top=0;left=0;right=0;bottom=0;" parent="Ds0_8YYltSqKF31_-xEG-1" vertex="1">
          <mxGeometry y="90" width="180" height="30" as="geometry" />
        </mxCell>
        <mxCell id="Ds0_8YYltSqKF31_-xEG-221" value="" style="shape=partialRectangle;connectable=0;fillColor=none;top=0;left=0;bottom=0;right=0;editable=1;overflow=hidden;" parent="Ds0_8YYltSqKF31_-xEG-220" vertex="1">
          <mxGeometry width="30" height="30" as="geometry">
            <mxRectangle width="30" height="30" as="alternateBounds" />
          </mxGeometry>
        </mxCell>
        <mxCell id="Ds0_8YYltSqKF31_-xEG-222" value="subject_id" style="shape=partialRectangle;connectable=0;fillColor=none;top=0;left=0;bottom=0;right=0;align=left;spacingLeft=6;overflow=hidden;" parent="Ds0_8YYltSqKF31_-xEG-220" vertex="1">
          <mxGeometry x="30" width="150" height="30" as="geometry">
            <mxRectangle width="150" height="30" as="alternateBounds" />
          </mxGeometry>
        </mxCell>
        <mxCell id="Ds0_8YYltSqKF31_-xEG-11" value="" style="shape=tableRow;horizontal=0;startSize=0;swimlaneHead=0;swimlaneBody=0;fillColor=none;collapsible=0;dropTarget=0;points=[[0,0.5],[1,0.5]];portConstraint=eastwest;top=0;left=0;right=0;bottom=0;" parent="Ds0_8YYltSqKF31_-xEG-1" vertex="1">
          <mxGeometry y="120" width="180" height="30" as="geometry" />
        </mxCell>
        <mxCell id="Ds0_8YYltSqKF31_-xEG-12" value="" style="shape=partialRectangle;connectable=0;fillColor=none;top=0;left=0;bottom=0;right=0;editable=1;overflow=hidden;" parent="Ds0_8YYltSqKF31_-xEG-11" vertex="1">
          <mxGeometry width="30" height="30" as="geometry">
            <mxRectangle width="30" height="30" as="alternateBounds" />
          </mxGeometry>
        </mxCell>
        <mxCell id="Ds0_8YYltSqKF31_-xEG-13" value="surname" style="shape=partialRectangle;connectable=0;fillColor=none;top=0;left=0;bottom=0;right=0;align=left;spacingLeft=6;overflow=hidden;" parent="Ds0_8YYltSqKF31_-xEG-11" vertex="1">
          <mxGeometry x="30" width="150" height="30" as="geometry">
            <mxRectangle width="150" height="30" as="alternateBounds" />
          </mxGeometry>
        </mxCell>
        <mxCell id="Ds0_8YYltSqKF31_-xEG-40" value="" style="shape=tableRow;horizontal=0;startSize=0;swimlaneHead=0;swimlaneBody=0;fillColor=none;collapsible=0;dropTarget=0;points=[[0,0.5],[1,0.5]];portConstraint=eastwest;top=0;left=0;right=0;bottom=0;" parent="Ds0_8YYltSqKF31_-xEG-1" vertex="1">
          <mxGeometry y="150" width="180" height="30" as="geometry" />
        </mxCell>
        <mxCell id="Ds0_8YYltSqKF31_-xEG-41" value="" style="shape=partialRectangle;connectable=0;fillColor=none;top=0;left=0;bottom=0;right=0;editable=1;overflow=hidden;" parent="Ds0_8YYltSqKF31_-xEG-40" vertex="1">
          <mxGeometry width="30" height="30" as="geometry">
            <mxRectangle width="30" height="30" as="alternateBounds" />
          </mxGeometry>
        </mxCell>
        <mxCell id="Ds0_8YYltSqKF31_-xEG-42" value="patronymic" style="shape=partialRectangle;connectable=0;fillColor=none;top=0;left=0;bottom=0;right=0;align=left;spacingLeft=6;overflow=hidden;" parent="Ds0_8YYltSqKF31_-xEG-40" vertex="1">
          <mxGeometry x="30" width="150" height="30" as="geometry">
            <mxRectangle width="150" height="30" as="alternateBounds" />
          </mxGeometry>
        </mxCell>
        <mxCell id="Ds0_8YYltSqKF31_-xEG-43" value="" style="shape=tableRow;horizontal=0;startSize=0;swimlaneHead=0;swimlaneBody=0;fillColor=none;collapsible=0;dropTarget=0;points=[[0,0.5],[1,0.5]];portConstraint=eastwest;top=0;left=0;right=0;bottom=0;" parent="Ds0_8YYltSqKF31_-xEG-1" vertex="1">
          <mxGeometry y="180" width="180" height="30" as="geometry" />
        </mxCell>
        <mxCell id="Ds0_8YYltSqKF31_-xEG-44" value="" style="shape=partialRectangle;connectable=0;fillColor=none;top=0;left=0;bottom=0;right=0;editable=1;overflow=hidden;" parent="Ds0_8YYltSqKF31_-xEG-43" vertex="1">
          <mxGeometry width="30" height="30" as="geometry">
            <mxRectangle width="30" height="30" as="alternateBounds" />
          </mxGeometry>
        </mxCell>
        <mxCell id="Ds0_8YYltSqKF31_-xEG-45" value="about" style="shape=partialRectangle;connectable=0;fillColor=none;top=0;left=0;bottom=0;right=0;align=left;spacingLeft=6;overflow=hidden;" parent="Ds0_8YYltSqKF31_-xEG-43" vertex="1">
          <mxGeometry x="30" width="150" height="30" as="geometry">
            <mxRectangle width="150" height="30" as="alternateBounds" />
          </mxGeometry>
        </mxCell>
        <mxCell id="Ds0_8YYltSqKF31_-xEG-46" value="" style="shape=tableRow;horizontal=0;startSize=0;swimlaneHead=0;swimlaneBody=0;fillColor=none;collapsible=0;dropTarget=0;points=[[0,0.5],[1,0.5]];portConstraint=eastwest;top=0;left=0;right=0;bottom=0;" parent="Ds0_8YYltSqKF31_-xEG-1" vertex="1">
          <mxGeometry y="210" width="180" height="30" as="geometry" />
        </mxCell>
        <mxCell id="Ds0_8YYltSqKF31_-xEG-47" value="" style="shape=partialRectangle;connectable=0;fillColor=none;top=0;left=0;bottom=0;right=0;editable=1;overflow=hidden;" parent="Ds0_8YYltSqKF31_-xEG-46" vertex="1">
          <mxGeometry width="30" height="30" as="geometry">
            <mxRectangle width="30" height="30" as="alternateBounds" />
          </mxGeometry>
        </mxCell>
        <mxCell id="Ds0_8YYltSqKF31_-xEG-48" value="status" style="shape=partialRectangle;connectable=0;fillColor=none;top=0;left=0;bottom=0;right=0;align=left;spacingLeft=6;overflow=hidden;" parent="Ds0_8YYltSqKF31_-xEG-46" vertex="1">
          <mxGeometry x="30" width="150" height="30" as="geometry">
            <mxRectangle width="150" height="30" as="alternateBounds" />
          </mxGeometry>
        </mxCell>
        <mxCell id="Ds0_8YYltSqKF31_-xEG-5" value="" style="shape=tableRow;horizontal=0;startSize=0;swimlaneHead=0;swimlaneBody=0;fillColor=none;collapsible=0;dropTarget=0;points=[[0,0.5],[1,0.5]];portConstraint=eastwest;top=0;left=0;right=0;bottom=0;" parent="Ds0_8YYltSqKF31_-xEG-1" vertex="1">
          <mxGeometry y="240" width="180" height="30" as="geometry" />
        </mxCell>
        <mxCell id="Ds0_8YYltSqKF31_-xEG-6" value="" style="shape=partialRectangle;connectable=0;fillColor=none;top=0;left=0;bottom=0;right=0;editable=1;overflow=hidden;" parent="Ds0_8YYltSqKF31_-xEG-5" vertex="1">
          <mxGeometry width="30" height="30" as="geometry">
            <mxRectangle width="30" height="30" as="alternateBounds" />
          </mxGeometry>
        </mxCell>
        <mxCell id="Ds0_8YYltSqKF31_-xEG-7" value="age" style="shape=partialRectangle;connectable=0;fillColor=none;top=0;left=0;bottom=0;right=0;align=left;spacingLeft=6;overflow=hidden;" parent="Ds0_8YYltSqKF31_-xEG-5" vertex="1">
          <mxGeometry x="30" width="150" height="30" as="geometry">
            <mxRectangle width="150" height="30" as="alternateBounds" />
          </mxGeometry>
        </mxCell>
        <mxCell id="Ds0_8YYltSqKF31_-xEG-27" value="Table" style="shape=table;startSize=30;container=1;collapsible=1;childLayout=tableLayout;fixedRows=1;rowLines=0;fontStyle=1;align=center;resizeLast=1;" parent="1" vertex="1">
          <mxGeometry x="100" y="-150" width="180" height="160" as="geometry" />
        </mxCell>
        <mxCell id="Ds0_8YYltSqKF31_-xEG-28" value="" style="shape=tableRow;horizontal=0;startSize=0;swimlaneHead=0;swimlaneBody=0;fillColor=none;collapsible=0;dropTarget=0;points=[[0,0.5],[1,0.5]];portConstraint=eastwest;top=0;left=0;right=0;bottom=1;" parent="Ds0_8YYltSqKF31_-xEG-27" vertex="1">
          <mxGeometry y="30" width="180" height="30" as="geometry" />
        </mxCell>
        <mxCell id="Ds0_8YYltSqKF31_-xEG-29" value="PK" style="shape=partialRectangle;connectable=0;fillColor=none;top=0;left=0;bottom=0;right=0;fontStyle=1;overflow=hidden;" parent="Ds0_8YYltSqKF31_-xEG-28" vertex="1">
          <mxGeometry width="30" height="30" as="geometry">
            <mxRectangle width="30" height="30" as="alternateBounds" />
          </mxGeometry>
        </mxCell>
        <mxCell id="Ds0_8YYltSqKF31_-xEG-30" value="UniqueID" style="shape=partialRectangle;connectable=0;fillColor=none;top=0;left=0;bottom=0;right=0;align=left;spacingLeft=6;fontStyle=5;overflow=hidden;" parent="Ds0_8YYltSqKF31_-xEG-28" vertex="1">
          <mxGeometry x="30" width="150" height="30" as="geometry">
            <mxRectangle width="150" height="30" as="alternateBounds" />
          </mxGeometry>
        </mxCell>
        <mxCell id="Ds0_8YYltSqKF31_-xEG-31" value="" style="shape=tableRow;horizontal=0;startSize=0;swimlaneHead=0;swimlaneBody=0;fillColor=none;collapsible=0;dropTarget=0;points=[[0,0.5],[1,0.5]];portConstraint=eastwest;top=0;left=0;right=0;bottom=0;" parent="Ds0_8YYltSqKF31_-xEG-27" vertex="1">
          <mxGeometry y="60" width="180" height="30" as="geometry" />
        </mxCell>
        <mxCell id="Ds0_8YYltSqKF31_-xEG-32" value="" style="shape=partialRectangle;connectable=0;fillColor=none;top=0;left=0;bottom=0;right=0;editable=1;overflow=hidden;" parent="Ds0_8YYltSqKF31_-xEG-31" vertex="1">
          <mxGeometry width="30" height="30" as="geometry">
            <mxRectangle width="30" height="30" as="alternateBounds" />
          </mxGeometry>
        </mxCell>
        <mxCell id="Ds0_8YYltSqKF31_-xEG-33" value="Row 1" style="shape=partialRectangle;connectable=0;fillColor=none;top=0;left=0;bottom=0;right=0;align=left;spacingLeft=6;overflow=hidden;" parent="Ds0_8YYltSqKF31_-xEG-31" vertex="1">
          <mxGeometry x="30" width="150" height="30" as="geometry">
            <mxRectangle width="150" height="30" as="alternateBounds" />
          </mxGeometry>
        </mxCell>
        <mxCell id="Ds0_8YYltSqKF31_-xEG-34" value="" style="shape=tableRow;horizontal=0;startSize=0;swimlaneHead=0;swimlaneBody=0;fillColor=none;collapsible=0;dropTarget=0;points=[[0,0.5],[1,0.5]];portConstraint=eastwest;top=0;left=0;right=0;bottom=0;" parent="Ds0_8YYltSqKF31_-xEG-27" vertex="1">
          <mxGeometry y="90" width="180" height="30" as="geometry" />
        </mxCell>
        <mxCell id="Ds0_8YYltSqKF31_-xEG-35" value="" style="shape=partialRectangle;connectable=0;fillColor=none;top=0;left=0;bottom=0;right=0;editable=1;overflow=hidden;" parent="Ds0_8YYltSqKF31_-xEG-34" vertex="1">
          <mxGeometry width="30" height="30" as="geometry">
            <mxRectangle width="30" height="30" as="alternateBounds" />
          </mxGeometry>
        </mxCell>
        <mxCell id="Ds0_8YYltSqKF31_-xEG-36" value="Row 2" style="shape=partialRectangle;connectable=0;fillColor=none;top=0;left=0;bottom=0;right=0;align=left;spacingLeft=6;overflow=hidden;" parent="Ds0_8YYltSqKF31_-xEG-34" vertex="1">
          <mxGeometry x="30" width="150" height="30" as="geometry">
            <mxRectangle width="150" height="30" as="alternateBounds" />
          </mxGeometry>
        </mxCell>
        <mxCell id="Ds0_8YYltSqKF31_-xEG-37" value="" style="shape=tableRow;horizontal=0;startSize=0;swimlaneHead=0;swimlaneBody=0;fillColor=none;collapsible=0;dropTarget=0;points=[[0,0.5],[1,0.5]];portConstraint=eastwest;top=0;left=0;right=0;bottom=0;" parent="Ds0_8YYltSqKF31_-xEG-27" vertex="1">
          <mxGeometry y="120" width="180" height="30" as="geometry" />
        </mxCell>
        <mxCell id="Ds0_8YYltSqKF31_-xEG-38" value="" style="shape=partialRectangle;connectable=0;fillColor=none;top=0;left=0;bottom=0;right=0;editable=1;overflow=hidden;" parent="Ds0_8YYltSqKF31_-xEG-37" vertex="1">
          <mxGeometry width="30" height="30" as="geometry">
            <mxRectangle width="30" height="30" as="alternateBounds" />
          </mxGeometry>
        </mxCell>
        <mxCell id="Ds0_8YYltSqKF31_-xEG-39" value="Row 3" style="shape=partialRectangle;connectable=0;fillColor=none;top=0;left=0;bottom=0;right=0;align=left;spacingLeft=6;overflow=hidden;" parent="Ds0_8YYltSqKF31_-xEG-37" vertex="1">
          <mxGeometry x="30" width="150" height="30" as="geometry">
            <mxRectangle width="150" height="30" as="alternateBounds" />
          </mxGeometry>
        </mxCell>
        <mxCell id="Ds0_8YYltSqKF31_-xEG-55" value="group" style="shape=table;startSize=30;container=1;collapsible=1;childLayout=tableLayout;fixedRows=1;rowLines=0;fontStyle=1;align=center;resizeLast=1;" parent="1" vertex="1">
          <mxGeometry x="-840" y="-240" width="180" height="220" as="geometry" />
        </mxCell>
        <mxCell id="Ds0_8YYltSqKF31_-xEG-56" value="" style="shape=tableRow;horizontal=0;startSize=0;swimlaneHead=0;swimlaneBody=0;fillColor=none;collapsible=0;dropTarget=0;points=[[0,0.5],[1,0.5]];portConstraint=eastwest;top=0;left=0;right=0;bottom=1;" parent="Ds0_8YYltSqKF31_-xEG-55" vertex="1">
          <mxGeometry y="30" width="180" height="30" as="geometry" />
        </mxCell>
        <mxCell id="Ds0_8YYltSqKF31_-xEG-57" value="PK" style="shape=partialRectangle;connectable=0;fillColor=none;top=0;left=0;bottom=0;right=0;fontStyle=1;overflow=hidden;" parent="Ds0_8YYltSqKF31_-xEG-56" vertex="1">
          <mxGeometry width="30" height="30" as="geometry">
            <mxRectangle width="30" height="30" as="alternateBounds" />
          </mxGeometry>
        </mxCell>
        <mxCell id="Ds0_8YYltSqKF31_-xEG-58" value="group_id" style="shape=partialRectangle;connectable=0;fillColor=none;top=0;left=0;bottom=0;right=0;align=left;spacingLeft=6;fontStyle=5;overflow=hidden;" parent="Ds0_8YYltSqKF31_-xEG-56" vertex="1">
          <mxGeometry x="30" width="150" height="30" as="geometry">
            <mxRectangle width="150" height="30" as="alternateBounds" />
          </mxGeometry>
        </mxCell>
        <mxCell id="Ds0_8YYltSqKF31_-xEG-94" value="" style="shape=tableRow;horizontal=0;startSize=0;swimlaneHead=0;swimlaneBody=0;fillColor=none;collapsible=0;dropTarget=0;points=[[0,0.5],[1,0.5]];portConstraint=eastwest;top=0;left=0;right=0;bottom=0;" parent="Ds0_8YYltSqKF31_-xEG-55" vertex="1">
          <mxGeometry y="60" width="180" height="30" as="geometry" />
        </mxCell>
        <mxCell id="Ds0_8YYltSqKF31_-xEG-95" value="" style="shape=partialRectangle;connectable=0;fillColor=none;top=0;left=0;bottom=0;right=0;editable=1;overflow=hidden;" parent="Ds0_8YYltSqKF31_-xEG-94" vertex="1">
          <mxGeometry width="30" height="30" as="geometry">
            <mxRectangle width="30" height="30" as="alternateBounds" />
          </mxGeometry>
        </mxCell>
        <mxCell id="Ds0_8YYltSqKF31_-xEG-96" value="spec_id" style="shape=partialRectangle;connectable=0;fillColor=none;top=0;left=0;bottom=0;right=0;align=left;spacingLeft=6;overflow=hidden;" parent="Ds0_8YYltSqKF31_-xEG-94" vertex="1">
          <mxGeometry x="30" width="150" height="30" as="geometry">
            <mxRectangle width="150" height="30" as="alternateBounds" />
          </mxGeometry>
        </mxCell>
        <mxCell id="Ds0_8YYltSqKF31_-xEG-361" value="" style="shape=tableRow;horizontal=0;startSize=0;swimlaneHead=0;swimlaneBody=0;fillColor=none;collapsible=0;dropTarget=0;points=[[0,0.5],[1,0.5]];portConstraint=eastwest;top=0;left=0;right=0;bottom=0;" parent="Ds0_8YYltSqKF31_-xEG-55" vertex="1">
          <mxGeometry y="90" width="180" height="30" as="geometry" />
        </mxCell>
        <mxCell id="Ds0_8YYltSqKF31_-xEG-362" value="" style="shape=partialRectangle;connectable=0;fillColor=none;top=0;left=0;bottom=0;right=0;editable=1;overflow=hidden;" parent="Ds0_8YYltSqKF31_-xEG-361" vertex="1">
          <mxGeometry width="30" height="30" as="geometry">
            <mxRectangle width="30" height="30" as="alternateBounds" />
          </mxGeometry>
        </mxCell>
        <mxCell id="Ds0_8YYltSqKF31_-xEG-363" value="teacher_id" style="shape=partialRectangle;connectable=0;fillColor=none;top=0;left=0;bottom=0;right=0;align=left;spacingLeft=6;overflow=hidden;" parent="Ds0_8YYltSqKF31_-xEG-361" vertex="1">
          <mxGeometry x="30" width="150" height="30" as="geometry">
            <mxRectangle width="150" height="30" as="alternateBounds" />
          </mxGeometry>
        </mxCell>
        <mxCell id="Ds0_8YYltSqKF31_-xEG-59" value="" style="shape=tableRow;horizontal=0;startSize=0;swimlaneHead=0;swimlaneBody=0;fillColor=none;collapsible=0;dropTarget=0;points=[[0,0.5],[1,0.5]];portConstraint=eastwest;top=0;left=0;right=0;bottom=0;" parent="Ds0_8YYltSqKF31_-xEG-55" vertex="1">
          <mxGeometry y="120" width="180" height="30" as="geometry" />
        </mxCell>
        <mxCell id="Ds0_8YYltSqKF31_-xEG-60" value="" style="shape=partialRectangle;connectable=0;fillColor=none;top=0;left=0;bottom=0;right=0;editable=1;overflow=hidden;" parent="Ds0_8YYltSqKF31_-xEG-59" vertex="1">
          <mxGeometry width="30" height="30" as="geometry">
            <mxRectangle width="30" height="30" as="alternateBounds" />
          </mxGeometry>
        </mxCell>
        <mxCell id="Ds0_8YYltSqKF31_-xEG-61" value="course" style="shape=partialRectangle;connectable=0;fillColor=none;top=0;left=0;bottom=0;right=0;align=left;spacingLeft=6;overflow=hidden;" parent="Ds0_8YYltSqKF31_-xEG-59" vertex="1">
          <mxGeometry x="30" width="150" height="30" as="geometry">
            <mxRectangle width="150" height="30" as="alternateBounds" />
          </mxGeometry>
        </mxCell>
        <mxCell id="Ds0_8YYltSqKF31_-xEG-65" value="" style="shape=tableRow;horizontal=0;startSize=0;swimlaneHead=0;swimlaneBody=0;fillColor=none;collapsible=0;dropTarget=0;points=[[0,0.5],[1,0.5]];portConstraint=eastwest;top=0;left=0;right=0;bottom=0;" parent="Ds0_8YYltSqKF31_-xEG-55" vertex="1">
          <mxGeometry y="150" width="180" height="30" as="geometry" />
        </mxCell>
        <mxCell id="Ds0_8YYltSqKF31_-xEG-66" value="" style="shape=partialRectangle;connectable=0;fillColor=none;top=0;left=0;bottom=0;right=0;editable=1;overflow=hidden;" parent="Ds0_8YYltSqKF31_-xEG-65" vertex="1">
          <mxGeometry width="30" height="30" as="geometry">
            <mxRectangle width="30" height="30" as="alternateBounds" />
          </mxGeometry>
        </mxCell>
        <mxCell id="Ds0_8YYltSqKF31_-xEG-67" value="student_amount" style="shape=partialRectangle;connectable=0;fillColor=none;top=0;left=0;bottom=0;right=0;align=left;spacingLeft=6;overflow=hidden;" parent="Ds0_8YYltSqKF31_-xEG-65" vertex="1">
          <mxGeometry x="30" width="150" height="30" as="geometry">
            <mxRectangle width="150" height="30" as="alternateBounds" />
          </mxGeometry>
        </mxCell>
        <mxCell id="Ds0_8YYltSqKF31_-xEG-62" value="" style="shape=tableRow;horizontal=0;startSize=0;swimlaneHead=0;swimlaneBody=0;fillColor=none;collapsible=0;dropTarget=0;points=[[0,0.5],[1,0.5]];portConstraint=eastwest;top=0;left=0;right=0;bottom=0;" parent="Ds0_8YYltSqKF31_-xEG-55" vertex="1">
          <mxGeometry y="180" width="180" height="30" as="geometry" />
        </mxCell>
        <mxCell id="Ds0_8YYltSqKF31_-xEG-63" value="" style="shape=partialRectangle;connectable=0;fillColor=none;top=0;left=0;bottom=0;right=0;editable=1;overflow=hidden;" parent="Ds0_8YYltSqKF31_-xEG-62" vertex="1">
          <mxGeometry width="30" height="30" as="geometry">
            <mxRectangle width="30" height="30" as="alternateBounds" />
          </mxGeometry>
        </mxCell>
        <mxCell id="Ds0_8YYltSqKF31_-xEG-64" value="year" style="shape=partialRectangle;connectable=0;fillColor=none;top=0;left=0;bottom=0;right=0;align=left;spacingLeft=6;overflow=hidden;" parent="Ds0_8YYltSqKF31_-xEG-62" vertex="1">
          <mxGeometry x="30" width="150" height="30" as="geometry">
            <mxRectangle width="150" height="30" as="alternateBounds" />
          </mxGeometry>
        </mxCell>
        <mxCell id="Ds0_8YYltSqKF31_-xEG-81" value="spec" style="shape=table;startSize=30;container=1;collapsible=1;childLayout=tableLayout;fixedRows=1;rowLines=0;fontStyle=1;align=center;resizeLast=1;" parent="1" vertex="1">
          <mxGeometry x="-600" y="-60" width="180" height="160" as="geometry" />
        </mxCell>
        <mxCell id="Ds0_8YYltSqKF31_-xEG-82" value="" style="shape=tableRow;horizontal=0;startSize=0;swimlaneHead=0;swimlaneBody=0;fillColor=none;collapsible=0;dropTarget=0;points=[[0,0.5],[1,0.5]];portConstraint=eastwest;top=0;left=0;right=0;bottom=1;" parent="Ds0_8YYltSqKF31_-xEG-81" vertex="1">
          <mxGeometry y="30" width="180" height="30" as="geometry" />
        </mxCell>
        <mxCell id="Ds0_8YYltSqKF31_-xEG-83" value="PK" style="shape=partialRectangle;connectable=0;fillColor=none;top=0;left=0;bottom=0;right=0;fontStyle=1;overflow=hidden;" parent="Ds0_8YYltSqKF31_-xEG-82" vertex="1">
          <mxGeometry width="30" height="30" as="geometry">
            <mxRectangle width="30" height="30" as="alternateBounds" />
          </mxGeometry>
        </mxCell>
        <mxCell id="Ds0_8YYltSqKF31_-xEG-84" value="spec_id" style="shape=partialRectangle;connectable=0;fillColor=none;top=0;left=0;bottom=0;right=0;align=left;spacingLeft=6;fontStyle=5;overflow=hidden;" parent="Ds0_8YYltSqKF31_-xEG-82" vertex="1">
          <mxGeometry x="30" width="150" height="30" as="geometry">
            <mxRectangle width="150" height="30" as="alternateBounds" />
          </mxGeometry>
        </mxCell>
        <mxCell id="Ds0_8YYltSqKF31_-xEG-98" value="" style="shape=tableRow;horizontal=0;startSize=0;swimlaneHead=0;swimlaneBody=0;fillColor=none;collapsible=0;dropTarget=0;points=[[0,0.5],[1,0.5]];portConstraint=eastwest;top=0;left=0;right=0;bottom=0;" parent="Ds0_8YYltSqKF31_-xEG-81" vertex="1">
          <mxGeometry y="60" width="180" height="30" as="geometry" />
        </mxCell>
        <mxCell id="Ds0_8YYltSqKF31_-xEG-99" value="" style="shape=partialRectangle;connectable=0;fillColor=none;top=0;left=0;bottom=0;right=0;editable=1;overflow=hidden;" parent="Ds0_8YYltSqKF31_-xEG-98" vertex="1">
          <mxGeometry width="30" height="30" as="geometry">
            <mxRectangle width="30" height="30" as="alternateBounds" />
          </mxGeometry>
        </mxCell>
        <mxCell id="Ds0_8YYltSqKF31_-xEG-100" value="division" style="shape=partialRectangle;connectable=0;fillColor=none;top=0;left=0;bottom=0;right=0;align=left;spacingLeft=6;overflow=hidden;" parent="Ds0_8YYltSqKF31_-xEG-98" vertex="1">
          <mxGeometry x="30" width="150" height="30" as="geometry">
            <mxRectangle width="150" height="30" as="alternateBounds" />
          </mxGeometry>
        </mxCell>
        <mxCell id="Ds0_8YYltSqKF31_-xEG-85" value="" style="shape=tableRow;horizontal=0;startSize=0;swimlaneHead=0;swimlaneBody=0;fillColor=none;collapsible=0;dropTarget=0;points=[[0,0.5],[1,0.5]];portConstraint=eastwest;top=0;left=0;right=0;bottom=0;" parent="Ds0_8YYltSqKF31_-xEG-81" vertex="1">
          <mxGeometry y="90" width="180" height="30" as="geometry" />
        </mxCell>
        <mxCell id="Ds0_8YYltSqKF31_-xEG-86" value="" style="shape=partialRectangle;connectable=0;fillColor=none;top=0;left=0;bottom=0;right=0;editable=1;overflow=hidden;" parent="Ds0_8YYltSqKF31_-xEG-85" vertex="1">
          <mxGeometry width="30" height="30" as="geometry">
            <mxRectangle width="30" height="30" as="alternateBounds" />
          </mxGeometry>
        </mxCell>
        <mxCell id="Ds0_8YYltSqKF31_-xEG-87" value="name" style="shape=partialRectangle;connectable=0;fillColor=none;top=0;left=0;bottom=0;right=0;align=left;spacingLeft=6;overflow=hidden;" parent="Ds0_8YYltSqKF31_-xEG-85" vertex="1">
          <mxGeometry x="30" width="150" height="30" as="geometry">
            <mxRectangle width="150" height="30" as="alternateBounds" />
          </mxGeometry>
        </mxCell>
        <mxCell id="Ds0_8YYltSqKF31_-xEG-88" value="" style="shape=tableRow;horizontal=0;startSize=0;swimlaneHead=0;swimlaneBody=0;fillColor=none;collapsible=0;dropTarget=0;points=[[0,0.5],[1,0.5]];portConstraint=eastwest;top=0;left=0;right=0;bottom=0;" parent="Ds0_8YYltSqKF31_-xEG-81" vertex="1">
          <mxGeometry y="120" width="180" height="30" as="geometry" />
        </mxCell>
        <mxCell id="Ds0_8YYltSqKF31_-xEG-89" value="" style="shape=partialRectangle;connectable=0;fillColor=none;top=0;left=0;bottom=0;right=0;editable=1;overflow=hidden;" parent="Ds0_8YYltSqKF31_-xEG-88" vertex="1">
          <mxGeometry width="30" height="30" as="geometry">
            <mxRectangle width="30" height="30" as="alternateBounds" />
          </mxGeometry>
        </mxCell>
        <mxCell id="Ds0_8YYltSqKF31_-xEG-90" value="about" style="shape=partialRectangle;connectable=0;fillColor=none;top=0;left=0;bottom=0;right=0;align=left;spacingLeft=6;overflow=hidden;" parent="Ds0_8YYltSqKF31_-xEG-88" vertex="1">
          <mxGeometry x="30" width="150" height="30" as="geometry">
            <mxRectangle width="150" height="30" as="alternateBounds" />
          </mxGeometry>
        </mxCell>
        <mxCell id="Ds0_8YYltSqKF31_-xEG-97" value="" style="edgeStyle=entityRelationEdgeStyle;fontSize=12;html=1;endArrow=ERoneToMany;rounded=0;" parent="1" source="Ds0_8YYltSqKF31_-xEG-82" target="Ds0_8YYltSqKF31_-xEG-94" edge="1">
          <mxGeometry width="100" height="100" relative="1" as="geometry">
            <mxPoint x="-1060" y="-170" as="sourcePoint" />
            <mxPoint x="-960" y="-270" as="targetPoint" />
          </mxGeometry>
        </mxCell>
        <mxCell id="Ds0_8YYltSqKF31_-xEG-101" value="message_group" style="shape=table;startSize=30;container=1;collapsible=1;childLayout=tableLayout;fixedRows=1;rowLines=0;fontStyle=1;align=center;resizeLast=1;" parent="1" vertex="1">
          <mxGeometry x="-1340" y="-300" width="180" height="130" as="geometry" />
        </mxCell>
        <mxCell id="Ds0_8YYltSqKF31_-xEG-102" value="" style="shape=tableRow;horizontal=0;startSize=0;swimlaneHead=0;swimlaneBody=0;fillColor=none;collapsible=0;dropTarget=0;points=[[0,0.5],[1,0.5]];portConstraint=eastwest;top=0;left=0;right=0;bottom=1;" parent="Ds0_8YYltSqKF31_-xEG-101" vertex="1">
          <mxGeometry y="30" width="180" height="30" as="geometry" />
        </mxCell>
        <mxCell id="Ds0_8YYltSqKF31_-xEG-103" value="PK" style="shape=partialRectangle;connectable=0;fillColor=none;top=0;left=0;bottom=0;right=0;fontStyle=1;overflow=hidden;" parent="Ds0_8YYltSqKF31_-xEG-102" vertex="1">
          <mxGeometry width="30" height="30" as="geometry">
            <mxRectangle width="30" height="30" as="alternateBounds" />
          </mxGeometry>
        </mxCell>
        <mxCell id="Ds0_8YYltSqKF31_-xEG-104" value="message_group_id" style="shape=partialRectangle;connectable=0;fillColor=none;top=0;left=0;bottom=0;right=0;align=left;spacingLeft=6;fontStyle=5;overflow=hidden;" parent="Ds0_8YYltSqKF31_-xEG-102" vertex="1">
          <mxGeometry x="30" width="150" height="30" as="geometry">
            <mxRectangle width="150" height="30" as="alternateBounds" />
          </mxGeometry>
        </mxCell>
        <mxCell id="Ds0_8YYltSqKF31_-xEG-108" value="" style="shape=tableRow;horizontal=0;startSize=0;swimlaneHead=0;swimlaneBody=0;fillColor=none;collapsible=0;dropTarget=0;points=[[0,0.5],[1,0.5]];portConstraint=eastwest;top=0;left=0;right=0;bottom=0;" parent="Ds0_8YYltSqKF31_-xEG-101" vertex="1">
          <mxGeometry y="60" width="180" height="30" as="geometry" />
        </mxCell>
        <mxCell id="Ds0_8YYltSqKF31_-xEG-109" value="" style="shape=partialRectangle;connectable=0;fillColor=none;top=0;left=0;bottom=0;right=0;editable=1;overflow=hidden;" parent="Ds0_8YYltSqKF31_-xEG-108" vertex="1">
          <mxGeometry width="30" height="30" as="geometry">
            <mxRectangle width="30" height="30" as="alternateBounds" />
          </mxGeometry>
        </mxCell>
        <mxCell id="Ds0_8YYltSqKF31_-xEG-110" value="message_group_type_id" style="shape=partialRectangle;connectable=0;fillColor=none;top=0;left=0;bottom=0;right=0;align=left;spacingLeft=6;overflow=hidden;" parent="Ds0_8YYltSqKF31_-xEG-108" vertex="1">
          <mxGeometry x="30" width="150" height="30" as="geometry">
            <mxRectangle width="150" height="30" as="alternateBounds" />
          </mxGeometry>
        </mxCell>
        <mxCell id="Ds0_8YYltSqKF31_-xEG-105" value="" style="shape=tableRow;horizontal=0;startSize=0;swimlaneHead=0;swimlaneBody=0;fillColor=none;collapsible=0;dropTarget=0;points=[[0,0.5],[1,0.5]];portConstraint=eastwest;top=0;left=0;right=0;bottom=0;" parent="Ds0_8YYltSqKF31_-xEG-101" vertex="1">
          <mxGeometry y="90" width="180" height="30" as="geometry" />
        </mxCell>
        <mxCell id="Ds0_8YYltSqKF31_-xEG-106" value="" style="shape=partialRectangle;connectable=0;fillColor=none;top=0;left=0;bottom=0;right=0;editable=1;overflow=hidden;" parent="Ds0_8YYltSqKF31_-xEG-105" vertex="1">
          <mxGeometry width="30" height="30" as="geometry">
            <mxRectangle width="30" height="30" as="alternateBounds" />
          </mxGeometry>
        </mxCell>
        <mxCell id="Ds0_8YYltSqKF31_-xEG-107" value="group_id" style="shape=partialRectangle;connectable=0;fillColor=none;top=0;left=0;bottom=0;right=0;align=left;spacingLeft=6;overflow=hidden;" parent="Ds0_8YYltSqKF31_-xEG-105" vertex="1">
          <mxGeometry x="30" width="150" height="30" as="geometry">
            <mxRectangle width="150" height="30" as="alternateBounds" />
          </mxGeometry>
        </mxCell>
        <mxCell id="Ds0_8YYltSqKF31_-xEG-128" value="" style="edgeStyle=entityRelationEdgeStyle;fontSize=12;html=1;endArrow=ERoneToMany;rounded=0;" parent="1" source="Ds0_8YYltSqKF31_-xEG-56" target="Ds0_8YYltSqKF31_-xEG-105" edge="1">
          <mxGeometry width="100" height="100" relative="1" as="geometry">
            <mxPoint x="-920" y="-250" as="sourcePoint" />
            <mxPoint x="-820" y="-350" as="targetPoint" />
          </mxGeometry>
        </mxCell>
        <mxCell id="Ds0_8YYltSqKF31_-xEG-136" value="&lt;span style=&quot;text-align: left&quot;&gt;У одной группы несколько чатов(3)&lt;/span&gt;" style="text;html=1;align=center;verticalAlign=middle;resizable=0;points=[];autosize=1;strokeColor=none;fillColor=none;fontStyle=1" parent="1" vertex="1">
          <mxGeometry x="-1120" y="-220" width="230" height="20" as="geometry" />
        </mxCell>
        <mxCell id="Ds0_8YYltSqKF31_-xEG-137" value="message_group_type" style="shape=table;startSize=30;container=1;collapsible=1;childLayout=tableLayout;fixedRows=1;rowLines=0;fontStyle=1;align=center;resizeLast=1;" parent="1" vertex="1">
          <mxGeometry x="-1100" y="-500" width="230" height="100" as="geometry" />
        </mxCell>
        <mxCell id="Ds0_8YYltSqKF31_-xEG-138" value="" style="shape=tableRow;horizontal=0;startSize=0;swimlaneHead=0;swimlaneBody=0;fillColor=none;collapsible=0;dropTarget=0;points=[[0,0.5],[1,0.5]];portConstraint=eastwest;top=0;left=0;right=0;bottom=1;" parent="Ds0_8YYltSqKF31_-xEG-137" vertex="1">
          <mxGeometry y="30" width="230" height="30" as="geometry" />
        </mxCell>
        <mxCell id="Ds0_8YYltSqKF31_-xEG-139" value="PK" style="shape=partialRectangle;connectable=0;fillColor=none;top=0;left=0;bottom=0;right=0;fontStyle=1;overflow=hidden;" parent="Ds0_8YYltSqKF31_-xEG-138" vertex="1">
          <mxGeometry width="30" height="30" as="geometry">
            <mxRectangle width="30" height="30" as="alternateBounds" />
          </mxGeometry>
        </mxCell>
        <mxCell id="Ds0_8YYltSqKF31_-xEG-140" value="message_group_type_id" style="shape=partialRectangle;connectable=0;fillColor=none;top=0;left=0;bottom=0;right=0;align=left;spacingLeft=6;fontStyle=5;overflow=hidden;" parent="Ds0_8YYltSqKF31_-xEG-138" vertex="1">
          <mxGeometry x="30" width="200" height="30" as="geometry">
            <mxRectangle width="200" height="30" as="alternateBounds" />
          </mxGeometry>
        </mxCell>
        <mxCell id="Ds0_8YYltSqKF31_-xEG-141" value="" style="shape=tableRow;horizontal=0;startSize=0;swimlaneHead=0;swimlaneBody=0;fillColor=none;collapsible=0;dropTarget=0;points=[[0,0.5],[1,0.5]];portConstraint=eastwest;top=0;left=0;right=0;bottom=0;" parent="Ds0_8YYltSqKF31_-xEG-137" vertex="1">
          <mxGeometry y="60" width="230" height="30" as="geometry" />
        </mxCell>
        <mxCell id="Ds0_8YYltSqKF31_-xEG-142" value="" style="shape=partialRectangle;connectable=0;fillColor=none;top=0;left=0;bottom=0;right=0;editable=1;overflow=hidden;" parent="Ds0_8YYltSqKF31_-xEG-141" vertex="1">
          <mxGeometry width="30" height="30" as="geometry">
            <mxRectangle width="30" height="30" as="alternateBounds" />
          </mxGeometry>
        </mxCell>
        <mxCell id="Ds0_8YYltSqKF31_-xEG-143" value="name" style="shape=partialRectangle;connectable=0;fillColor=none;top=0;left=0;bottom=0;right=0;align=left;spacingLeft=6;overflow=hidden;" parent="Ds0_8YYltSqKF31_-xEG-141" vertex="1">
          <mxGeometry x="30" width="200" height="30" as="geometry">
            <mxRectangle width="200" height="30" as="alternateBounds" />
          </mxGeometry>
        </mxCell>
        <mxCell id="Ds0_8YYltSqKF31_-xEG-150" value="" style="edgeStyle=entityRelationEdgeStyle;fontSize=12;html=1;endArrow=ERoneToMany;rounded=0;" parent="1" source="Ds0_8YYltSqKF31_-xEG-138" target="Ds0_8YYltSqKF31_-xEG-108" edge="1">
          <mxGeometry width="100" height="100" relative="1" as="geometry">
            <mxPoint x="-1360" y="-360" as="sourcePoint" />
            <mxPoint x="-1260" y="-460" as="targetPoint" />
          </mxGeometry>
        </mxCell>
        <mxCell id="Ds0_8YYltSqKF31_-xEG-156" value="&lt;font style=&quot;font-size: 14px&quot;&gt;&lt;span&gt;&lt;b&gt;Типы чатов бывают разными:&lt;/b&gt;&lt;br&gt;&lt;/span&gt;&lt;span&gt;&lt;ul&gt;&lt;li&gt;&lt;span&gt;Чат с преподавателем и студентами (писать может только препод и староста)&lt;/span&gt;&lt;/li&gt;&lt;li&gt;Чат со студентами (писать может только староста)&lt;/li&gt;&lt;li&gt;Чат со студентами (писать может любой)&lt;/li&gt;&lt;/ul&gt;&lt;/span&gt;&lt;/font&gt;" style="text;html=1;strokeColor=none;fillColor=none;align=left;verticalAlign=middle;whiteSpace=wrap;rounded=0;" parent="1" vertex="1">
          <mxGeometry x="-860" y="-520" width="320" height="140" as="geometry" />
        </mxCell>
        <mxCell id="Ds0_8YYltSqKF31_-xEG-157" value="&lt;span style=&quot;font-size: 14px&quot;&gt;&lt;b&gt;Группы будут записаны в формате:&lt;br&gt;&lt;/b&gt;&lt;ul&gt;&lt;li&gt;&lt;span style=&quot;font-size: 14px&quot;&gt;09.02.07 - 2 Б (2019) Татьяна Борисовна&lt;/span&gt;&lt;/li&gt;&lt;li&gt;&lt;span style=&quot;font-size: 14px&quot;&gt;09.02.07 - 2 А (2019)&lt;/span&gt;&lt;/li&gt;&lt;/ul&gt;&lt;/span&gt;" style="text;html=1;strokeColor=none;fillColor=none;align=left;verticalAlign=middle;whiteSpace=wrap;rounded=0;" parent="1" vertex="1">
          <mxGeometry x="-620" y="-230" width="460" height="100" as="geometry" />
        </mxCell>
        <mxCell id="Ds0_8YYltSqKF31_-xEG-158" value="&lt;b&gt;Пример записи специальности:&lt;/b&gt;&lt;br&gt;&lt;ul&gt;&lt;li&gt;09.02.07 (Б) - информационные системы и программирование&lt;/li&gt;&lt;li&gt;29.02.03 (А)&lt;/li&gt;&lt;/ul&gt;" style="text;html=1;strokeColor=none;fillColor=none;align=left;verticalAlign=middle;whiteSpace=wrap;rounded=0;fontSize=14;" parent="1" vertex="1">
          <mxGeometry x="-413" y="10" width="253" height="80" as="geometry" />
        </mxCell>
        <mxCell id="Ds0_8YYltSqKF31_-xEG-159" value="student" style="shape=table;startSize=30;container=1;collapsible=1;childLayout=tableLayout;fixedRows=1;rowLines=0;fontStyle=1;align=center;resizeLast=1;" parent="1" vertex="1">
          <mxGeometry x="-1340" y="-50" width="180" height="310" as="geometry" />
        </mxCell>
        <mxCell id="Ds0_8YYltSqKF31_-xEG-160" value="" style="shape=tableRow;horizontal=0;startSize=0;swimlaneHead=0;swimlaneBody=0;fillColor=none;collapsible=0;dropTarget=0;points=[[0,0.5],[1,0.5]];portConstraint=eastwest;top=0;left=0;right=0;bottom=1;" parent="Ds0_8YYltSqKF31_-xEG-159" vertex="1">
          <mxGeometry y="30" width="180" height="30" as="geometry" />
        </mxCell>
        <mxCell id="Ds0_8YYltSqKF31_-xEG-161" value="PK" style="shape=partialRectangle;connectable=0;fillColor=none;top=0;left=0;bottom=0;right=0;fontStyle=1;overflow=hidden;" parent="Ds0_8YYltSqKF31_-xEG-160" vertex="1">
          <mxGeometry width="30" height="30" as="geometry">
            <mxRectangle width="30" height="30" as="alternateBounds" />
          </mxGeometry>
        </mxCell>
        <mxCell id="Ds0_8YYltSqKF31_-xEG-162" value="student_id" style="shape=partialRectangle;connectable=0;fillColor=none;top=0;left=0;bottom=0;right=0;align=left;spacingLeft=6;fontStyle=5;overflow=hidden;" parent="Ds0_8YYltSqKF31_-xEG-160" vertex="1">
          <mxGeometry x="30" width="150" height="30" as="geometry">
            <mxRectangle width="150" height="30" as="alternateBounds" />
          </mxGeometry>
        </mxCell>
        <mxCell id="Ds0_8YYltSqKF31_-xEG-163" value="" style="shape=tableRow;horizontal=0;startSize=0;swimlaneHead=0;swimlaneBody=0;fillColor=none;collapsible=0;dropTarget=0;points=[[0,0.5],[1,0.5]];portConstraint=eastwest;top=0;left=0;right=0;bottom=0;" parent="Ds0_8YYltSqKF31_-xEG-159" vertex="1">
          <mxGeometry y="60" width="180" height="30" as="geometry" />
        </mxCell>
        <mxCell id="Ds0_8YYltSqKF31_-xEG-164" value="" style="shape=partialRectangle;connectable=0;fillColor=none;top=0;left=0;bottom=0;right=0;editable=1;overflow=hidden;" parent="Ds0_8YYltSqKF31_-xEG-163" vertex="1">
          <mxGeometry width="30" height="30" as="geometry">
            <mxRectangle width="30" height="30" as="alternateBounds" />
          </mxGeometry>
        </mxCell>
        <mxCell id="Ds0_8YYltSqKF31_-xEG-165" value="name" style="shape=partialRectangle;connectable=0;fillColor=none;top=0;left=0;bottom=0;right=0;align=left;spacingLeft=6;overflow=hidden;" parent="Ds0_8YYltSqKF31_-xEG-163" vertex="1">
          <mxGeometry x="30" width="150" height="30" as="geometry">
            <mxRectangle width="150" height="30" as="alternateBounds" />
          </mxGeometry>
        </mxCell>
        <mxCell id="Ds0_8YYltSqKF31_-xEG-166" value="" style="shape=tableRow;horizontal=0;startSize=0;swimlaneHead=0;swimlaneBody=0;fillColor=none;collapsible=0;dropTarget=0;points=[[0,0.5],[1,0.5]];portConstraint=eastwest;top=0;left=0;right=0;bottom=0;" parent="Ds0_8YYltSqKF31_-xEG-159" vertex="1">
          <mxGeometry y="90" width="180" height="30" as="geometry" />
        </mxCell>
        <mxCell id="Ds0_8YYltSqKF31_-xEG-167" value="" style="shape=partialRectangle;connectable=0;fillColor=none;top=0;left=0;bottom=0;right=0;editable=1;overflow=hidden;" parent="Ds0_8YYltSqKF31_-xEG-166" vertex="1">
          <mxGeometry width="30" height="30" as="geometry">
            <mxRectangle width="30" height="30" as="alternateBounds" />
          </mxGeometry>
        </mxCell>
        <mxCell id="Ds0_8YYltSqKF31_-xEG-168" value="surname" style="shape=partialRectangle;connectable=0;fillColor=none;top=0;left=0;bottom=0;right=0;align=left;spacingLeft=6;overflow=hidden;" parent="Ds0_8YYltSqKF31_-xEG-166" vertex="1">
          <mxGeometry x="30" width="150" height="30" as="geometry">
            <mxRectangle width="150" height="30" as="alternateBounds" />
          </mxGeometry>
        </mxCell>
        <mxCell id="Ds0_8YYltSqKF31_-xEG-169" value="" style="shape=tableRow;horizontal=0;startSize=0;swimlaneHead=0;swimlaneBody=0;fillColor=none;collapsible=0;dropTarget=0;points=[[0,0.5],[1,0.5]];portConstraint=eastwest;top=0;left=0;right=0;bottom=0;" parent="Ds0_8YYltSqKF31_-xEG-159" vertex="1">
          <mxGeometry y="120" width="180" height="30" as="geometry" />
        </mxCell>
        <mxCell id="Ds0_8YYltSqKF31_-xEG-170" value="" style="shape=partialRectangle;connectable=0;fillColor=none;top=0;left=0;bottom=0;right=0;editable=1;overflow=hidden;" parent="Ds0_8YYltSqKF31_-xEG-169" vertex="1">
          <mxGeometry width="30" height="30" as="geometry">
            <mxRectangle width="30" height="30" as="alternateBounds" />
          </mxGeometry>
        </mxCell>
        <mxCell id="Ds0_8YYltSqKF31_-xEG-171" value="patronymic" style="shape=partialRectangle;connectable=0;fillColor=none;top=0;left=0;bottom=0;right=0;align=left;spacingLeft=6;overflow=hidden;" parent="Ds0_8YYltSqKF31_-xEG-169" vertex="1">
          <mxGeometry x="30" width="150" height="30" as="geometry">
            <mxRectangle width="150" height="30" as="alternateBounds" />
          </mxGeometry>
        </mxCell>
        <mxCell id="Ds0_8YYltSqKF31_-xEG-172" value="" style="shape=tableRow;horizontal=0;startSize=0;swimlaneHead=0;swimlaneBody=0;fillColor=none;collapsible=0;dropTarget=0;points=[[0,0.5],[1,0.5]];portConstraint=eastwest;top=0;left=0;right=0;bottom=0;" parent="Ds0_8YYltSqKF31_-xEG-159" vertex="1">
          <mxGeometry y="150" width="180" height="30" as="geometry" />
        </mxCell>
        <mxCell id="Ds0_8YYltSqKF31_-xEG-173" value="" style="shape=partialRectangle;connectable=0;fillColor=none;top=0;left=0;bottom=0;right=0;editable=1;overflow=hidden;" parent="Ds0_8YYltSqKF31_-xEG-172" vertex="1">
          <mxGeometry width="30" height="30" as="geometry">
            <mxRectangle width="30" height="30" as="alternateBounds" />
          </mxGeometry>
        </mxCell>
        <mxCell id="Ds0_8YYltSqKF31_-xEG-174" value="about" style="shape=partialRectangle;connectable=0;fillColor=none;top=0;left=0;bottom=0;right=0;align=left;spacingLeft=6;overflow=hidden;" parent="Ds0_8YYltSqKF31_-xEG-172" vertex="1">
          <mxGeometry x="30" width="150" height="30" as="geometry">
            <mxRectangle width="150" height="30" as="alternateBounds" />
          </mxGeometry>
        </mxCell>
        <mxCell id="Ds0_8YYltSqKF31_-xEG-175" value="" style="shape=tableRow;horizontal=0;startSize=0;swimlaneHead=0;swimlaneBody=0;fillColor=none;collapsible=0;dropTarget=0;points=[[0,0.5],[1,0.5]];portConstraint=eastwest;top=0;left=0;right=0;bottom=0;" parent="Ds0_8YYltSqKF31_-xEG-159" vertex="1">
          <mxGeometry y="180" width="180" height="30" as="geometry" />
        </mxCell>
        <mxCell id="Ds0_8YYltSqKF31_-xEG-176" value="" style="shape=partialRectangle;connectable=0;fillColor=none;top=0;left=0;bottom=0;right=0;editable=1;overflow=hidden;" parent="Ds0_8YYltSqKF31_-xEG-175" vertex="1">
          <mxGeometry width="30" height="30" as="geometry">
            <mxRectangle width="30" height="30" as="alternateBounds" />
          </mxGeometry>
        </mxCell>
        <mxCell id="Ds0_8YYltSqKF31_-xEG-177" value="status" style="shape=partialRectangle;connectable=0;fillColor=none;top=0;left=0;bottom=0;right=0;align=left;spacingLeft=6;overflow=hidden;" parent="Ds0_8YYltSqKF31_-xEG-175" vertex="1">
          <mxGeometry x="30" width="150" height="30" as="geometry">
            <mxRectangle width="150" height="30" as="alternateBounds" />
          </mxGeometry>
        </mxCell>
        <mxCell id="Ds0_8YYltSqKF31_-xEG-178" value="" style="shape=tableRow;horizontal=0;startSize=0;swimlaneHead=0;swimlaneBody=0;fillColor=none;collapsible=0;dropTarget=0;points=[[0,0.5],[1,0.5]];portConstraint=eastwest;top=0;left=0;right=0;bottom=0;" parent="Ds0_8YYltSqKF31_-xEG-159" vertex="1">
          <mxGeometry y="210" width="180" height="30" as="geometry" />
        </mxCell>
        <mxCell id="Ds0_8YYltSqKF31_-xEG-179" value="" style="shape=partialRectangle;connectable=0;fillColor=none;top=0;left=0;bottom=0;right=0;editable=1;overflow=hidden;" parent="Ds0_8YYltSqKF31_-xEG-178" vertex="1">
          <mxGeometry width="30" height="30" as="geometry">
            <mxRectangle width="30" height="30" as="alternateBounds" />
          </mxGeometry>
        </mxCell>
        <mxCell id="Ds0_8YYltSqKF31_-xEG-180" value="age" style="shape=partialRectangle;connectable=0;fillColor=none;top=0;left=0;bottom=0;right=0;align=left;spacingLeft=6;overflow=hidden;" parent="Ds0_8YYltSqKF31_-xEG-178" vertex="1">
          <mxGeometry x="30" width="150" height="30" as="geometry">
            <mxRectangle width="150" height="30" as="alternateBounds" />
          </mxGeometry>
        </mxCell>
        <mxCell id="Ds0_8YYltSqKF31_-xEG-371" value="" style="shape=tableRow;horizontal=0;startSize=0;swimlaneHead=0;swimlaneBody=0;fillColor=none;collapsible=0;dropTarget=0;points=[[0,0.5],[1,0.5]];portConstraint=eastwest;top=0;left=0;right=0;bottom=0;" parent="Ds0_8YYltSqKF31_-xEG-159" vertex="1">
          <mxGeometry y="240" width="180" height="30" as="geometry" />
        </mxCell>
        <mxCell id="Ds0_8YYltSqKF31_-xEG-372" value="" style="shape=partialRectangle;connectable=0;fillColor=none;top=0;left=0;bottom=0;right=0;editable=1;overflow=hidden;" parent="Ds0_8YYltSqKF31_-xEG-371" vertex="1">
          <mxGeometry width="30" height="30" as="geometry">
            <mxRectangle width="30" height="30" as="alternateBounds" />
          </mxGeometry>
        </mxCell>
        <mxCell id="Ds0_8YYltSqKF31_-xEG-373" value="course" style="shape=partialRectangle;connectable=0;fillColor=none;top=0;left=0;bottom=0;right=0;align=left;spacingLeft=6;overflow=hidden;" parent="Ds0_8YYltSqKF31_-xEG-371" vertex="1">
          <mxGeometry x="30" width="150" height="30" as="geometry">
            <mxRectangle width="150" height="30" as="alternateBounds" />
          </mxGeometry>
        </mxCell>
        <mxCell id="Ds0_8YYltSqKF31_-xEG-367" value="" style="shape=tableRow;horizontal=0;startSize=0;swimlaneHead=0;swimlaneBody=0;fillColor=none;collapsible=0;dropTarget=0;points=[[0,0.5],[1,0.5]];portConstraint=eastwest;top=0;left=0;right=0;bottom=0;" parent="Ds0_8YYltSqKF31_-xEG-159" vertex="1">
          <mxGeometry y="270" width="180" height="30" as="geometry" />
        </mxCell>
        <mxCell id="Ds0_8YYltSqKF31_-xEG-368" value="" style="shape=partialRectangle;connectable=0;fillColor=none;top=0;left=0;bottom=0;right=0;editable=1;overflow=hidden;" parent="Ds0_8YYltSqKF31_-xEG-367" vertex="1">
          <mxGeometry width="30" height="30" as="geometry">
            <mxRectangle width="30" height="30" as="alternateBounds" />
          </mxGeometry>
        </mxCell>
        <mxCell id="Ds0_8YYltSqKF31_-xEG-369" value="group_id" style="shape=partialRectangle;connectable=0;fillColor=none;top=0;left=0;bottom=0;right=0;align=left;spacingLeft=6;overflow=hidden;" parent="Ds0_8YYltSqKF31_-xEG-367" vertex="1">
          <mxGeometry x="30" width="150" height="30" as="geometry">
            <mxRectangle width="150" height="30" as="alternateBounds" />
          </mxGeometry>
        </mxCell>
        <mxCell id="Ds0_8YYltSqKF31_-xEG-216" value="" style="edgeStyle=entityRelationEdgeStyle;fontSize=12;html=1;endArrow=ERoneToMany;rounded=0;" parent="1" source="Ds0_8YYltSqKF31_-xEG-2" target="Ds0_8YYltSqKF31_-xEG-361" edge="1">
          <mxGeometry width="100" height="100" relative="1" as="geometry">
            <mxPoint x="-920" y="10" as="sourcePoint" />
            <mxPoint x="-860" y="-140" as="targetPoint" />
          </mxGeometry>
        </mxCell>
        <mxCell id="Ds0_8YYltSqKF31_-xEG-327" value="" style="shape=tableRow;horizontal=0;startSize=0;swimlaneHead=0;swimlaneBody=0;fillColor=none;collapsible=0;dropTarget=0;points=[[0,0.5],[1,0.5]];portConstraint=eastwest;top=0;left=0;right=0;bottom=0;" parent="1" vertex="1">
          <mxGeometry x="-1270" y="620" width="180" height="30" as="geometry" />
        </mxCell>
        <mxCell id="Ds0_8YYltSqKF31_-xEG-328" value="" style="shape=partialRectangle;connectable=0;fillColor=none;top=0;left=0;bottom=0;right=0;editable=1;overflow=hidden;" parent="Ds0_8YYltSqKF31_-xEG-327" vertex="1">
          <mxGeometry width="30" height="30" as="geometry">
            <mxRectangle width="30" height="30" as="alternateBounds" />
          </mxGeometry>
        </mxCell>
        <mxCell id="Ds0_8YYltSqKF31_-xEG-333" value="admin" style="shape=table;startSize=30;container=1;collapsible=1;childLayout=tableLayout;fixedRows=1;rowLines=0;fontStyle=1;align=center;resizeLast=1;" parent="1" vertex="1">
          <mxGeometry x="-1340" y="570" width="180" height="250" as="geometry" />
        </mxCell>
        <mxCell id="Ds0_8YYltSqKF31_-xEG-334" value="" style="shape=tableRow;horizontal=0;startSize=0;swimlaneHead=0;swimlaneBody=0;fillColor=none;collapsible=0;dropTarget=0;points=[[0,0.5],[1,0.5]];portConstraint=eastwest;top=0;left=0;right=0;bottom=1;" parent="Ds0_8YYltSqKF31_-xEG-333" vertex="1">
          <mxGeometry y="30" width="180" height="30" as="geometry" />
        </mxCell>
        <mxCell id="Ds0_8YYltSqKF31_-xEG-335" value="PK" style="shape=partialRectangle;connectable=0;fillColor=none;top=0;left=0;bottom=0;right=0;fontStyle=1;overflow=hidden;" parent="Ds0_8YYltSqKF31_-xEG-334" vertex="1">
          <mxGeometry width="30" height="30" as="geometry">
            <mxRectangle width="30" height="30" as="alternateBounds" />
          </mxGeometry>
        </mxCell>
        <mxCell id="Ds0_8YYltSqKF31_-xEG-336" value="admin_id" style="shape=partialRectangle;connectable=0;fillColor=none;top=0;left=0;bottom=0;right=0;align=left;spacingLeft=6;fontStyle=5;overflow=hidden;" parent="Ds0_8YYltSqKF31_-xEG-334" vertex="1">
          <mxGeometry x="30" width="150" height="30" as="geometry">
            <mxRectangle width="150" height="30" as="alternateBounds" />
          </mxGeometry>
        </mxCell>
        <mxCell id="Ds0_8YYltSqKF31_-xEG-340" value="" style="shape=tableRow;horizontal=0;startSize=0;swimlaneHead=0;swimlaneBody=0;fillColor=none;collapsible=0;dropTarget=0;points=[[0,0.5],[1,0.5]];portConstraint=eastwest;top=0;left=0;right=0;bottom=0;" parent="Ds0_8YYltSqKF31_-xEG-333" vertex="1">
          <mxGeometry y="60" width="180" height="30" as="geometry" />
        </mxCell>
        <mxCell id="Ds0_8YYltSqKF31_-xEG-341" value="" style="shape=partialRectangle;connectable=0;fillColor=none;top=0;left=0;bottom=0;right=0;editable=1;overflow=hidden;" parent="Ds0_8YYltSqKF31_-xEG-340" vertex="1">
          <mxGeometry width="30" height="30" as="geometry">
            <mxRectangle width="30" height="30" as="alternateBounds" />
          </mxGeometry>
        </mxCell>
        <mxCell id="Ds0_8YYltSqKF31_-xEG-342" value="name" style="shape=partialRectangle;connectable=0;fillColor=none;top=0;left=0;bottom=0;right=0;align=left;spacingLeft=6;overflow=hidden;" parent="Ds0_8YYltSqKF31_-xEG-340" vertex="1">
          <mxGeometry x="30" width="150" height="30" as="geometry">
            <mxRectangle width="150" height="30" as="alternateBounds" />
          </mxGeometry>
        </mxCell>
        <mxCell id="Ds0_8YYltSqKF31_-xEG-343" value="" style="shape=tableRow;horizontal=0;startSize=0;swimlaneHead=0;swimlaneBody=0;fillColor=none;collapsible=0;dropTarget=0;points=[[0,0.5],[1,0.5]];portConstraint=eastwest;top=0;left=0;right=0;bottom=0;" parent="Ds0_8YYltSqKF31_-xEG-333" vertex="1">
          <mxGeometry y="90" width="180" height="30" as="geometry" />
        </mxCell>
        <mxCell id="Ds0_8YYltSqKF31_-xEG-344" value="" style="shape=partialRectangle;connectable=0;fillColor=none;top=0;left=0;bottom=0;right=0;editable=1;overflow=hidden;" parent="Ds0_8YYltSqKF31_-xEG-343" vertex="1">
          <mxGeometry width="30" height="30" as="geometry">
            <mxRectangle width="30" height="30" as="alternateBounds" />
          </mxGeometry>
        </mxCell>
        <mxCell id="Ds0_8YYltSqKF31_-xEG-345" value="surname" style="shape=partialRectangle;connectable=0;fillColor=none;top=0;left=0;bottom=0;right=0;align=left;spacingLeft=6;overflow=hidden;" parent="Ds0_8YYltSqKF31_-xEG-343" vertex="1">
          <mxGeometry x="30" width="150" height="30" as="geometry">
            <mxRectangle width="150" height="30" as="alternateBounds" />
          </mxGeometry>
        </mxCell>
        <mxCell id="Ds0_8YYltSqKF31_-xEG-346" value="" style="shape=tableRow;horizontal=0;startSize=0;swimlaneHead=0;swimlaneBody=0;fillColor=none;collapsible=0;dropTarget=0;points=[[0,0.5],[1,0.5]];portConstraint=eastwest;top=0;left=0;right=0;bottom=0;" parent="Ds0_8YYltSqKF31_-xEG-333" vertex="1">
          <mxGeometry y="120" width="180" height="30" as="geometry" />
        </mxCell>
        <mxCell id="Ds0_8YYltSqKF31_-xEG-347" value="" style="shape=partialRectangle;connectable=0;fillColor=none;top=0;left=0;bottom=0;right=0;editable=1;overflow=hidden;" parent="Ds0_8YYltSqKF31_-xEG-346" vertex="1">
          <mxGeometry width="30" height="30" as="geometry">
            <mxRectangle width="30" height="30" as="alternateBounds" />
          </mxGeometry>
        </mxCell>
        <mxCell id="Ds0_8YYltSqKF31_-xEG-348" value="patronymic" style="shape=partialRectangle;connectable=0;fillColor=none;top=0;left=0;bottom=0;right=0;align=left;spacingLeft=6;overflow=hidden;" parent="Ds0_8YYltSqKF31_-xEG-346" vertex="1">
          <mxGeometry x="30" width="150" height="30" as="geometry">
            <mxRectangle width="150" height="30" as="alternateBounds" />
          </mxGeometry>
        </mxCell>
        <mxCell id="Ds0_8YYltSqKF31_-xEG-349" value="" style="shape=tableRow;horizontal=0;startSize=0;swimlaneHead=0;swimlaneBody=0;fillColor=none;collapsible=0;dropTarget=0;points=[[0,0.5],[1,0.5]];portConstraint=eastwest;top=0;left=0;right=0;bottom=0;" parent="Ds0_8YYltSqKF31_-xEG-333" vertex="1">
          <mxGeometry y="150" width="180" height="30" as="geometry" />
        </mxCell>
        <mxCell id="Ds0_8YYltSqKF31_-xEG-350" value="" style="shape=partialRectangle;connectable=0;fillColor=none;top=0;left=0;bottom=0;right=0;editable=1;overflow=hidden;" parent="Ds0_8YYltSqKF31_-xEG-349" vertex="1">
          <mxGeometry width="30" height="30" as="geometry">
            <mxRectangle width="30" height="30" as="alternateBounds" />
          </mxGeometry>
        </mxCell>
        <mxCell id="Ds0_8YYltSqKF31_-xEG-351" value="about" style="shape=partialRectangle;connectable=0;fillColor=none;top=0;left=0;bottom=0;right=0;align=left;spacingLeft=6;overflow=hidden;" parent="Ds0_8YYltSqKF31_-xEG-349" vertex="1">
          <mxGeometry x="30" width="150" height="30" as="geometry">
            <mxRectangle width="150" height="30" as="alternateBounds" />
          </mxGeometry>
        </mxCell>
        <mxCell id="Ds0_8YYltSqKF31_-xEG-352" value="" style="shape=tableRow;horizontal=0;startSize=0;swimlaneHead=0;swimlaneBody=0;fillColor=none;collapsible=0;dropTarget=0;points=[[0,0.5],[1,0.5]];portConstraint=eastwest;top=0;left=0;right=0;bottom=0;" parent="Ds0_8YYltSqKF31_-xEG-333" vertex="1">
          <mxGeometry y="180" width="180" height="30" as="geometry" />
        </mxCell>
        <mxCell id="Ds0_8YYltSqKF31_-xEG-353" value="" style="shape=partialRectangle;connectable=0;fillColor=none;top=0;left=0;bottom=0;right=0;editable=1;overflow=hidden;" parent="Ds0_8YYltSqKF31_-xEG-352" vertex="1">
          <mxGeometry width="30" height="30" as="geometry">
            <mxRectangle width="30" height="30" as="alternateBounds" />
          </mxGeometry>
        </mxCell>
        <mxCell id="Ds0_8YYltSqKF31_-xEG-354" value="status" style="shape=partialRectangle;connectable=0;fillColor=none;top=0;left=0;bottom=0;right=0;align=left;spacingLeft=6;overflow=hidden;" parent="Ds0_8YYltSqKF31_-xEG-352" vertex="1">
          <mxGeometry x="30" width="150" height="30" as="geometry">
            <mxRectangle width="150" height="30" as="alternateBounds" />
          </mxGeometry>
        </mxCell>
        <mxCell id="Ds0_8YYltSqKF31_-xEG-355" value="" style="shape=tableRow;horizontal=0;startSize=0;swimlaneHead=0;swimlaneBody=0;fillColor=none;collapsible=0;dropTarget=0;points=[[0,0.5],[1,0.5]];portConstraint=eastwest;top=0;left=0;right=0;bottom=0;" parent="Ds0_8YYltSqKF31_-xEG-333" vertex="1">
          <mxGeometry y="210" width="180" height="30" as="geometry" />
        </mxCell>
        <mxCell id="Ds0_8YYltSqKF31_-xEG-356" value="" style="shape=partialRectangle;connectable=0;fillColor=none;top=0;left=0;bottom=0;right=0;editable=1;overflow=hidden;" parent="Ds0_8YYltSqKF31_-xEG-355" vertex="1">
          <mxGeometry width="30" height="30" as="geometry">
            <mxRectangle width="30" height="30" as="alternateBounds" />
          </mxGeometry>
        </mxCell>
        <mxCell id="Ds0_8YYltSqKF31_-xEG-357" value="age" style="shape=partialRectangle;connectable=0;fillColor=none;top=0;left=0;bottom=0;right=0;align=left;spacingLeft=6;overflow=hidden;" parent="Ds0_8YYltSqKF31_-xEG-355" vertex="1">
          <mxGeometry x="30" width="150" height="30" as="geometry">
            <mxRectangle width="150" height="30" as="alternateBounds" />
          </mxGeometry>
        </mxCell>
        <mxCell id="Ds0_8YYltSqKF31_-xEG-370" value="" style="edgeStyle=entityRelationEdgeStyle;fontSize=12;html=1;endArrow=ERoneToMany;rounded=0;" parent="1" source="Ds0_8YYltSqKF31_-xEG-56" target="Ds0_8YYltSqKF31_-xEG-367" edge="1">
          <mxGeometry width="100" height="100" relative="1" as="geometry">
            <mxPoint x="-840" y="180" as="sourcePoint" />
            <mxPoint x="-780" y="160" as="targetPoint" />
          </mxGeometry>
        </mxCell>
        <mxCell id="Ds0_8YYltSqKF31_-xEG-374" value="&lt;span style=&quot;font-size: 10px;&quot;&gt;нужен триггер на&lt;/span&gt;&lt;b style=&quot;font-size: 10px;&quot;&gt; student_amount&lt;/b&gt;" style="shape=callout;whiteSpace=wrap;html=1;perimeter=calloutPerimeter;fontSize=10;align=center;base=5;position2=0.4;" parent="1" vertex="1">
          <mxGeometry x="-800" y="-310" width="180" height="70" as="geometry" />
        </mxCell>
        <mxCell id="Ds0_8YYltSqKF31_-xEG-377" value="&lt;span style=&quot;font-size: 10px;&quot;&gt;нужен триггер на &lt;/span&gt;&lt;b style=&quot;font-size: 10px;&quot;&gt;course&lt;/b&gt;" style="shape=callout;whiteSpace=wrap;html=1;perimeter=calloutPerimeter;fontSize=10;align=center;base=10;position2=0.44;size=30;position=0.5;" parent="1" vertex="1">
          <mxGeometry x="-1335" y="-120" width="170" height="70" as="geometry" />
        </mxCell>
        <mxCell id="KE0D6dZM0qTWaY7kMRqU-2" value="&lt;div style=&quot;text-align: left&quot;&gt;&lt;span&gt;В одной группе несколько студентов&lt;/span&gt;&lt;/div&gt;" style="text;html=1;align=center;verticalAlign=middle;resizable=0;points=[];autosize=1;strokeColor=none;fillColor=none;fontStyle=1;rotation=-59;" parent="1" vertex="1">
          <mxGeometry x="-1135" y="-10" width="240" height="20" as="geometry" />
        </mxCell>
        <mxCell id="KE0D6dZM0qTWaY7kMRqU-29" value="message" style="shape=table;startSize=30;container=1;collapsible=1;childLayout=tableLayout;fixedRows=1;rowLines=0;fontStyle=1;align=center;resizeLast=1;" parent="1" vertex="1">
          <mxGeometry x="-1770" y="-140" width="230" height="160" as="geometry" />
        </mxCell>
        <mxCell id="KE0D6dZM0qTWaY7kMRqU-30" value="" style="shape=tableRow;horizontal=0;startSize=0;swimlaneHead=0;swimlaneBody=0;fillColor=none;collapsible=0;dropTarget=0;points=[[0,0.5],[1,0.5]];portConstraint=eastwest;top=0;left=0;right=0;bottom=1;" parent="KE0D6dZM0qTWaY7kMRqU-29" vertex="1">
          <mxGeometry y="30" width="230" height="30" as="geometry" />
        </mxCell>
        <mxCell id="KE0D6dZM0qTWaY7kMRqU-31" value="PK" style="shape=partialRectangle;connectable=0;fillColor=none;top=0;left=0;bottom=0;right=0;fontStyle=1;overflow=hidden;" parent="KE0D6dZM0qTWaY7kMRqU-30" vertex="1">
          <mxGeometry width="30" height="30" as="geometry">
            <mxRectangle width="30" height="30" as="alternateBounds" />
          </mxGeometry>
        </mxCell>
        <mxCell id="KE0D6dZM0qTWaY7kMRqU-32" value="message_id" style="shape=partialRectangle;connectable=0;fillColor=none;top=0;left=0;bottom=0;right=0;align=left;spacingLeft=6;fontStyle=5;overflow=hidden;" parent="KE0D6dZM0qTWaY7kMRqU-30" vertex="1">
          <mxGeometry x="30" width="200" height="30" as="geometry">
            <mxRectangle width="200" height="30" as="alternateBounds" />
          </mxGeometry>
        </mxCell>
        <mxCell id="KE0D6dZM0qTWaY7kMRqU-33" value="" style="shape=tableRow;horizontal=0;startSize=0;swimlaneHead=0;swimlaneBody=0;fillColor=none;collapsible=0;dropTarget=0;points=[[0,0.5],[1,0.5]];portConstraint=eastwest;top=0;left=0;right=0;bottom=0;" parent="KE0D6dZM0qTWaY7kMRqU-29" vertex="1">
          <mxGeometry y="60" width="230" height="30" as="geometry" />
        </mxCell>
        <mxCell id="KE0D6dZM0qTWaY7kMRqU-34" value="" style="shape=partialRectangle;connectable=0;fillColor=none;top=0;left=0;bottom=0;right=0;editable=1;overflow=hidden;" parent="KE0D6dZM0qTWaY7kMRqU-33" vertex="1">
          <mxGeometry width="30" height="30" as="geometry">
            <mxRectangle width="30" height="30" as="alternateBounds" />
          </mxGeometry>
        </mxCell>
        <mxCell id="KE0D6dZM0qTWaY7kMRqU-35" value="message_group_id" style="shape=partialRectangle;connectable=0;fillColor=none;top=0;left=0;bottom=0;right=0;align=left;spacingLeft=6;overflow=hidden;" parent="KE0D6dZM0qTWaY7kMRqU-33" vertex="1">
          <mxGeometry x="30" width="200" height="30" as="geometry">
            <mxRectangle width="200" height="30" as="alternateBounds" />
          </mxGeometry>
        </mxCell>
        <mxCell id="KE0D6dZM0qTWaY7kMRqU-39" value="" style="shape=tableRow;horizontal=0;startSize=0;swimlaneHead=0;swimlaneBody=0;fillColor=none;collapsible=0;dropTarget=0;points=[[0,0.5],[1,0.5]];portConstraint=eastwest;top=0;left=0;right=0;bottom=0;" parent="KE0D6dZM0qTWaY7kMRqU-29" vertex="1">
          <mxGeometry y="90" width="230" height="30" as="geometry" />
        </mxCell>
        <mxCell id="KE0D6dZM0qTWaY7kMRqU-40" value="" style="shape=partialRectangle;connectable=0;fillColor=none;top=0;left=0;bottom=0;right=0;editable=1;overflow=hidden;" parent="KE0D6dZM0qTWaY7kMRqU-39" vertex="1">
          <mxGeometry width="30" height="30" as="geometry">
            <mxRectangle width="30" height="30" as="alternateBounds" />
          </mxGeometry>
        </mxCell>
        <mxCell id="KE0D6dZM0qTWaY7kMRqU-41" value="person_id" style="shape=partialRectangle;connectable=0;fillColor=none;top=0;left=0;bottom=0;right=0;align=left;spacingLeft=6;overflow=hidden;" parent="KE0D6dZM0qTWaY7kMRqU-39" vertex="1">
          <mxGeometry x="30" width="200" height="30" as="geometry">
            <mxRectangle width="200" height="30" as="alternateBounds" />
          </mxGeometry>
        </mxCell>
        <mxCell id="KE0D6dZM0qTWaY7kMRqU-69" value="" style="shape=tableRow;horizontal=0;startSize=0;swimlaneHead=0;swimlaneBody=0;fillColor=none;collapsible=0;dropTarget=0;points=[[0,0.5],[1,0.5]];portConstraint=eastwest;top=0;left=0;right=0;bottom=0;" parent="KE0D6dZM0qTWaY7kMRqU-29" vertex="1">
          <mxGeometry y="120" width="230" height="30" as="geometry" />
        </mxCell>
        <mxCell id="KE0D6dZM0qTWaY7kMRqU-70" value="" style="shape=partialRectangle;connectable=0;fillColor=none;top=0;left=0;bottom=0;right=0;editable=1;overflow=hidden;" parent="KE0D6dZM0qTWaY7kMRqU-69" vertex="1">
          <mxGeometry width="30" height="30" as="geometry">
            <mxRectangle width="30" height="30" as="alternateBounds" />
          </mxGeometry>
        </mxCell>
        <mxCell id="KE0D6dZM0qTWaY7kMRqU-71" value="person_type_id" style="shape=partialRectangle;connectable=0;fillColor=none;top=0;left=0;bottom=0;right=0;align=left;spacingLeft=6;overflow=hidden;" parent="KE0D6dZM0qTWaY7kMRqU-69" vertex="1">
          <mxGeometry x="30" width="200" height="30" as="geometry">
            <mxRectangle width="200" height="30" as="alternateBounds" />
          </mxGeometry>
        </mxCell>
        <mxCell id="KE0D6dZM0qTWaY7kMRqU-56" value="person_type" style="shape=table;startSize=30;container=1;collapsible=1;childLayout=tableLayout;fixedRows=1;rowLines=0;fontStyle=1;align=center;resizeLast=1;" parent="1" vertex="1">
          <mxGeometry x="-1730" y="110" width="180" height="100" as="geometry" />
        </mxCell>
        <mxCell id="KE0D6dZM0qTWaY7kMRqU-57" value="" style="shape=tableRow;horizontal=0;startSize=0;swimlaneHead=0;swimlaneBody=0;fillColor=none;collapsible=0;dropTarget=0;points=[[0,0.5],[1,0.5]];portConstraint=eastwest;top=0;left=0;right=0;bottom=1;" parent="KE0D6dZM0qTWaY7kMRqU-56" vertex="1">
          <mxGeometry y="30" width="180" height="30" as="geometry" />
        </mxCell>
        <mxCell id="KE0D6dZM0qTWaY7kMRqU-58" value="PK" style="shape=partialRectangle;connectable=0;fillColor=none;top=0;left=0;bottom=0;right=0;fontStyle=1;overflow=hidden;" parent="KE0D6dZM0qTWaY7kMRqU-57" vertex="1">
          <mxGeometry width="30" height="30" as="geometry">
            <mxRectangle width="30" height="30" as="alternateBounds" />
          </mxGeometry>
        </mxCell>
        <mxCell id="KE0D6dZM0qTWaY7kMRqU-59" value="person_type_id" style="shape=partialRectangle;connectable=0;fillColor=none;top=0;left=0;bottom=0;right=0;align=left;spacingLeft=6;fontStyle=5;overflow=hidden;" parent="KE0D6dZM0qTWaY7kMRqU-57" vertex="1">
          <mxGeometry x="30" width="150" height="30" as="geometry">
            <mxRectangle width="150" height="30" as="alternateBounds" />
          </mxGeometry>
        </mxCell>
        <mxCell id="KE0D6dZM0qTWaY7kMRqU-60" value="" style="shape=tableRow;horizontal=0;startSize=0;swimlaneHead=0;swimlaneBody=0;fillColor=none;collapsible=0;dropTarget=0;points=[[0,0.5],[1,0.5]];portConstraint=eastwest;top=0;left=0;right=0;bottom=0;" parent="KE0D6dZM0qTWaY7kMRqU-56" vertex="1">
          <mxGeometry y="60" width="180" height="30" as="geometry" />
        </mxCell>
        <mxCell id="KE0D6dZM0qTWaY7kMRqU-61" value="" style="shape=partialRectangle;connectable=0;fillColor=none;top=0;left=0;bottom=0;right=0;editable=1;overflow=hidden;" parent="KE0D6dZM0qTWaY7kMRqU-60" vertex="1">
          <mxGeometry width="30" height="30" as="geometry">
            <mxRectangle width="30" height="30" as="alternateBounds" />
          </mxGeometry>
        </mxCell>
        <mxCell id="KE0D6dZM0qTWaY7kMRqU-62" value="name" style="shape=partialRectangle;connectable=0;fillColor=none;top=0;left=0;bottom=0;right=0;align=left;spacingLeft=6;overflow=hidden;" parent="KE0D6dZM0qTWaY7kMRqU-60" vertex="1">
          <mxGeometry x="30" width="150" height="30" as="geometry">
            <mxRectangle width="150" height="30" as="alternateBounds" />
          </mxGeometry>
        </mxCell>
        <mxCell id="KE0D6dZM0qTWaY7kMRqU-85" value="" style="edgeStyle=entityRelationEdgeStyle;fontSize=12;html=1;endArrow=ERoneToMany;rounded=0;" parent="1" source="KE0D6dZM0qTWaY7kMRqU-57" target="KE0D6dZM0qTWaY7kMRqU-69" edge="1">
          <mxGeometry width="100" height="100" relative="1" as="geometry">
            <mxPoint x="-2004" y="30" as="sourcePoint" />
            <mxPoint x="-1680" y="-45" as="targetPoint" />
          </mxGeometry>
        </mxCell>
        <mxCell id="KE0D6dZM0qTWaY7kMRqU-143" value="" style="edgeStyle=entityRelationEdgeStyle;fontSize=12;html=1;endArrow=ERoneToMany;rounded=0;" parent="1" source="Ds0_8YYltSqKF31_-xEG-102" target="KE0D6dZM0qTWaY7kMRqU-33" edge="1">
          <mxGeometry width="100" height="100" relative="1" as="geometry">
            <mxPoint x="-1500" y="70" as="sourcePoint" />
            <mxPoint x="-1400" y="-30" as="targetPoint" />
          </mxGeometry>
        </mxCell>
        <mxCell id="KE0D6dZM0qTWaY7kMRqU-147" value="" style="edgeStyle=entityRelationEdgeStyle;fontSize=12;html=1;endArrow=ERoneToMany;rounded=0;" parent="1" source="Ds0_8YYltSqKF31_-xEG-160" target="KE0D6dZM0qTWaY7kMRqU-39" edge="1">
          <mxGeometry width="100" height="100" relative="1" as="geometry">
            <mxPoint x="-1550" y="230" as="sourcePoint" />
            <mxPoint x="-1446" y="-75" as="targetPoint" />
          </mxGeometry>
        </mxCell>
        <mxCell id="KE0D6dZM0qTWaY7kMRqU-148" value="" style="edgeStyle=entityRelationEdgeStyle;fontSize=12;html=1;endArrow=ERoneToMany;rounded=0;" parent="1" source="Ds0_8YYltSqKF31_-xEG-2" target="KE0D6dZM0qTWaY7kMRqU-39" edge="1">
          <mxGeometry width="100" height="100" relative="1" as="geometry">
            <mxPoint x="-1650" y="300" as="sourcePoint" />
            <mxPoint x="-1446" y="-75" as="targetPoint" />
          </mxGeometry>
        </mxCell>
        <mxCell id="KE0D6dZM0qTWaY7kMRqU-149" value="" style="edgeStyle=entityRelationEdgeStyle;fontSize=12;html=1;endArrow=ERoneToMany;rounded=0;" parent="1" source="Ds0_8YYltSqKF31_-xEG-334" target="KE0D6dZM0qTWaY7kMRqU-39" edge="1">
          <mxGeometry width="100" height="100" relative="1" as="geometry">
            <mxPoint x="-1620" y="510" as="sourcePoint" />
            <mxPoint x="-1446" y="-75" as="targetPoint" />
          </mxGeometry>
        </mxCell>
        <mxCell id="KE0D6dZM0qTWaY7kMRqU-150" value="jwt должен содержать в себе при авторизации person_type_id" style="shape=callout;whiteSpace=wrap;html=1;perimeter=calloutPerimeter;fontSize=10;align=center;base=10;position2=0.44;size=30;position=0.5;" parent="1" vertex="1">
          <mxGeometry x="-1720" y="40" width="170" height="70" as="geometry" />
        </mxCell>
        <mxCell id="1dLxYRQWP7nbCFLP-ZYz-79" value="" style="strokeWidth=1;shadow=0;dashed=0;align=center;html=1;shape=mxgraph.mockup.containers.browserWindow;rSize=0;strokeColor2=#008cff;strokeColor3=#c4c4c4;mainText=,;recursiveResize=0;fontSize=18;fontStyle=1" parent="1" vertex="1">
          <mxGeometry x="350" y="1130" width="1921.78" height="1100" as="geometry" />
        </mxCell>
        <mxCell id="1dLxYRQWP7nbCFLP-ZYz-80" value="&lt;font style=&quot;font-size: 15px&quot;&gt;Моя Страница&lt;/font&gt;" style="strokeWidth=1;shadow=0;dashed=0;align=center;html=1;shape=mxgraph.mockup.containers.anchor;fontSize=17;fontColor=#666666;align=left;" parent="1dLxYRQWP7nbCFLP-ZYz-79" vertex="1">
          <mxGeometry x="60" y="12" width="110" height="26" as="geometry" />
        </mxCell>
        <mxCell id="1dLxYRQWP7nbCFLP-ZYz-81" value="http://localhost:5000/person/4" style="strokeWidth=1;shadow=0;dashed=0;align=center;html=1;shape=mxgraph.mockup.containers.anchor;rSize=0;fontSize=17;fontColor=#666666;align=left;" parent="1dLxYRQWP7nbCFLP-ZYz-79" vertex="1">
          <mxGeometry x="130" y="60" width="250" height="26" as="geometry" />
        </mxCell>
        <mxCell id="1dLxYRQWP7nbCFLP-ZYz-82" value="&lt;span style=&quot;font-size: 24px&quot;&gt;Vkollege&lt;/span&gt;" style="rounded=0;whiteSpace=wrap;html=1;fontSize=10;fillColor=#dae8fc;strokeColor=#6c8ebf;align=center;" parent="1dLxYRQWP7nbCFLP-ZYz-79" vertex="1">
          <mxGeometry y="110" width="1920" height="80" as="geometry" />
        </mxCell>
        <mxCell id="1dLxYRQWP7nbCFLP-ZYz-83" value="" style="rounded=0;whiteSpace=wrap;html=1;fontSize=24;" parent="1dLxYRQWP7nbCFLP-ZYz-79" vertex="1">
          <mxGeometry x="370" y="190" width="1200" height="890" as="geometry" />
        </mxCell>
        <mxCell id="1dLxYRQWP7nbCFLP-ZYz-84" value="" style="rounded=0;whiteSpace=wrap;html=1;fillColor=#d5e8d4;strokeColor=#82b366;" parent="1dLxYRQWP7nbCFLP-ZYz-79" vertex="1">
          <mxGeometry x="370" y="190" width="240" height="890" as="geometry" />
        </mxCell>
        <mxCell id="1dLxYRQWP7nbCFLP-ZYz-85" value="Моя страница (карта студента)" style="text;html=1;strokeColor=none;fillColor=none;align=left;verticalAlign=middle;whiteSpace=wrap;rounded=0;fontStyle=1" parent="1dLxYRQWP7nbCFLP-ZYz-79" vertex="1">
          <mxGeometry x="390" y="210" width="200" height="30" as="geometry" />
        </mxCell>
        <mxCell id="1dLxYRQWP7nbCFLP-ZYz-86" value="&lt;h1&gt;Тимергалиев Адель Илназович&lt;/h1&gt;Lorem ipsum dolor sit amet, consectetur adipisicing elit, sed do eiusmod tempor incididunt ut labore et dolore magna aliqua.Lorem ipsum dolor sit amet, consectetur adipisicing elit, sed do eiusmod tempor incididunt ut labore et dolore magna aliqua.Lorem ipsum dolor sit amet, consectetur adipisicing elit, sed do eiusmod tempor incididunt ut labore et dolore magna aliqua." style="text;html=1;strokeColor=none;fillColor=none;spacing=5;spacingTop=-20;whiteSpace=wrap;overflow=hidden;rounded=0;" parent="1dLxYRQWP7nbCFLP-ZYz-79" vertex="1">
          <mxGeometry x="910" y="210" width="620" height="250" as="geometry" />
        </mxCell>
        <mxCell id="1dLxYRQWP7nbCFLP-ZYz-87" value="" style="rounded=0;whiteSpace=wrap;html=1;fillColor=#f5f5f5;fontColor=#333333;strokeColor=#666666;" parent="1dLxYRQWP7nbCFLP-ZYz-79" vertex="1">
          <mxGeometry x="610" y="190" width="290" height="890" as="geometry" />
        </mxCell>
        <mxCell id="1dLxYRQWP7nbCFLP-ZYz-88" value="фотография чата" style="rounded=0;whiteSpace=wrap;html=1;" parent="1dLxYRQWP7nbCFLP-ZYz-79" vertex="1">
          <mxGeometry x="630" y="210" width="250" height="250" as="geometry" />
        </mxCell>
        <mxCell id="1dLxYRQWP7nbCFLP-ZYz-89" value="Изменить" style="rounded=0;whiteSpace=wrap;html=1;" parent="1dLxYRQWP7nbCFLP-ZYz-79" vertex="1">
          <mxGeometry x="630" y="480" width="250" height="50" as="geometry" />
        </mxCell>
        <mxCell id="1dLxYRQWP7nbCFLP-ZYz-90" value="Добавить в друзья/Удалить из друзей" style="rounded=0;whiteSpace=wrap;html=1;" parent="1dLxYRQWP7nbCFLP-ZYz-79" vertex="1">
          <mxGeometry x="630" y="550" width="250" height="50" as="geometry" />
        </mxCell>
        <mxCell id="1dLxYRQWP7nbCFLP-ZYz-91" value="Написать" style="rounded=0;whiteSpace=wrap;html=1;" parent="1dLxYRQWP7nbCFLP-ZYz-79" vertex="1">
          <mxGeometry x="630" y="620" width="250" height="50" as="geometry" />
        </mxCell>
        <mxCell id="1dLxYRQWP7nbCFLP-ZYz-92" value="Группа: 09.02.07 -&amp;nbsp; 3 (2019)&lt;br&gt;Куратор: Татьяна Борисовна" style="text;html=1;strokeColor=none;fillColor=none;align=left;verticalAlign=middle;whiteSpace=wrap;rounded=0;" parent="1dLxYRQWP7nbCFLP-ZYz-79" vertex="1">
          <mxGeometry x="910" y="330" width="180" height="50" as="geometry" />
        </mxCell>
        <mxCell id="1dLxYRQWP7nbCFLP-ZYz-93" value="Чат с преподавателем" style="text;html=1;strokeColor=none;fillColor=none;align=left;verticalAlign=middle;whiteSpace=wrap;rounded=0;" parent="1dLxYRQWP7nbCFLP-ZYz-79" vertex="1">
          <mxGeometry x="410" y="270" width="200" height="30" as="geometry" />
        </mxCell>
        <mxCell id="1dLxYRQWP7nbCFLP-ZYz-94" value="Чат свободный" style="text;html=1;strokeColor=none;fillColor=none;align=left;verticalAlign=middle;whiteSpace=wrap;rounded=0;" parent="1dLxYRQWP7nbCFLP-ZYz-79" vertex="1">
          <mxGeometry x="410" y="350" width="200" height="30" as="geometry" />
        </mxCell>
        <mxCell id="1dLxYRQWP7nbCFLP-ZYz-95" value="Чат старосты" style="text;html=1;strokeColor=none;fillColor=none;align=left;verticalAlign=middle;whiteSpace=wrap;rounded=0;" parent="1dLxYRQWP7nbCFLP-ZYz-79" vertex="1">
          <mxGeometry x="410" y="310" width="200" height="30" as="geometry" />
        </mxCell>
        <mxCell id="1dLxYRQWP7nbCFLP-ZYz-96" value="&lt;b style=&quot;font-size: 12px;&quot;&gt;Чаты группы&lt;/b&gt;" style="text;html=1;strokeColor=none;fillColor=none;align=left;verticalAlign=middle;whiteSpace=wrap;rounded=0;fontSize=12;" parent="1dLxYRQWP7nbCFLP-ZYz-79" vertex="1">
          <mxGeometry x="390" y="240" width="200" height="30" as="geometry" />
        </mxCell>
        <mxCell id="1dLxYRQWP7nbCFLP-ZYz-97" value="&lt;b style=&quot;font-size: 12px&quot;&gt;Свободные чаты&lt;/b&gt;" style="text;html=1;strokeColor=none;fillColor=none;align=left;verticalAlign=middle;whiteSpace=wrap;rounded=0;fontSize=12;" parent="1dLxYRQWP7nbCFLP-ZYz-79" vertex="1">
          <mxGeometry x="390" y="380" width="200" height="30" as="geometry" />
        </mxCell>
        <mxCell id="1dLxYRQWP7nbCFLP-ZYz-98" value="" style="rounded=0;whiteSpace=wrap;html=1;fontSize=12;fillColor=none;" parent="1dLxYRQWP7nbCFLP-ZYz-79" vertex="1">
          <mxGeometry x="920" y="470" width="620" height="410" as="geometry" />
        </mxCell>
        <mxCell id="1dLxYRQWP7nbCFLP-ZYz-99" value="&lt;h1&gt;Пост №1&lt;/h1&gt;Lorem ipsum dolor sit amet, consectetur adipisicing elit, sed do eiusmod tempor incididunt ut labore et dolore magna aliqua.Lorem ipsum dolor sit amet, consectetur adipisicing elit, sed do eiusmod tempor incididunt ut labore et dolore magna aliqua.Lorem ipsum dolor sit amet, consectetur adipisicing elit, sed do eiusmod tempor incididunt ut labore et dolore magna aliqua." style="text;html=1;strokeColor=none;fillColor=none;spacing=5;spacingTop=-20;whiteSpace=wrap;overflow=hidden;rounded=0;" parent="1dLxYRQWP7nbCFLP-ZYz-79" vertex="1">
          <mxGeometry x="930" y="475" width="600" height="165" as="geometry" />
        </mxCell>
        <mxCell id="1dLxYRQWP7nbCFLP-ZYz-100" value="" style="rounded=0;whiteSpace=wrap;html=1;fontSize=12;fillColor=none;" parent="1dLxYRQWP7nbCFLP-ZYz-79" vertex="1">
          <mxGeometry x="930" y="600" width="170" height="180" as="geometry" />
        </mxCell>
        <mxCell id="1dLxYRQWP7nbCFLP-ZYz-101" value="" style="rounded=0;whiteSpace=wrap;html=1;fontSize=12;fillColor=none;" parent="1dLxYRQWP7nbCFLP-ZYz-79" vertex="1">
          <mxGeometry x="1120" y="600" width="170" height="180" as="geometry" />
        </mxCell>
        <mxCell id="1dLxYRQWP7nbCFLP-ZYz-102" value="" style="rounded=0;whiteSpace=wrap;html=1;fontSize=12;fillColor=none;" parent="1dLxYRQWP7nbCFLP-ZYz-79" vertex="1">
          <mxGeometry x="1310" y="600" width="170" height="180" as="geometry" />
        </mxCell>
        <mxCell id="1dLxYRQWP7nbCFLP-ZYz-103" value="" style="shape=singleArrow;whiteSpace=wrap;html=1;fontSize=12;fillColor=none;arrowWidth=0.29705882352940305;arrowSize=0.0684095860566445;" parent="1dLxYRQWP7nbCFLP-ZYz-79" vertex="1">
          <mxGeometry x="930" y="790" width="610" height="30" as="geometry" />
        </mxCell>
        <mxCell id="1dLxYRQWP7nbCFLP-ZYz-104" value="" style="rounded=0;whiteSpace=wrap;html=1;fontSize=12;fillColor=none;" parent="1dLxYRQWP7nbCFLP-ZYz-79" vertex="1">
          <mxGeometry x="1500" y="600" width="40" height="180" as="geometry" />
        </mxCell>
        <mxCell id="1dLxYRQWP7nbCFLP-ZYz-105" value="Лайков: 127" style="text;html=1;strokeColor=none;fillColor=none;align=left;verticalAlign=middle;whiteSpace=wrap;rounded=0;fontSize=12;" parent="1dLxYRQWP7nbCFLP-ZYz-79" vertex="1">
          <mxGeometry x="930.89" y="820" width="99.11" height="30" as="geometry" />
        </mxCell>
        <mxCell id="1dLxYRQWP7nbCFLP-ZYz-106" value="Комментарии(кликнуть чтобы открыть)" style="text;html=1;strokeColor=none;fillColor=none;align=left;verticalAlign=middle;whiteSpace=wrap;rounded=0;fontSize=12;" parent="1dLxYRQWP7nbCFLP-ZYz-79" vertex="1">
          <mxGeometry x="1020.89" y="820" width="239.11" height="30" as="geometry" />
        </mxCell>
        <mxCell id="1dLxYRQWP7nbCFLP-ZYz-107" value="" style="ellipse;whiteSpace=wrap;html=1;aspect=fixed;fontSize=12;fillColor=none;" parent="1dLxYRQWP7nbCFLP-ZYz-79" vertex="1">
          <mxGeometry x="990" y="900" width="40" height="40" as="geometry" />
        </mxCell>
        <mxCell id="1dLxYRQWP7nbCFLP-ZYz-108" value="Тимергалиев Адель" style="text;html=1;strokeColor=none;fillColor=none;align=left;verticalAlign=middle;whiteSpace=wrap;rounded=0;fontSize=12;fontStyle=1" parent="1dLxYRQWP7nbCFLP-ZYz-79" vertex="1">
          <mxGeometry x="1040" y="900" width="130" height="20" as="geometry" />
        </mxCell>
        <mxCell id="1dLxYRQWP7nbCFLP-ZYz-109" value="em ipsum dolor sit amet, consectetur adipisicing elit, sed do eiusmod tempor incididunt ut labore et dolore magna aliqua.Lorem ipsum dolor sit amet, consectetur adipisicing elit, sed do eiusmod tempor incididunt ut labore et dolore magna aliqua.Lorem ipsum dolor sit amet, consectetur adipisicing elit, sed do eiusmod tempor incididunt ut labore et dolore magna aliqua." style="text;html=1;strokeColor=none;fillColor=none;align=left;verticalAlign=middle;whiteSpace=wrap;rounded=0;fontSize=12;" parent="1dLxYRQWP7nbCFLP-ZYz-79" vertex="1">
          <mxGeometry x="1040" y="910" width="290" height="140" as="geometry" />
        </mxCell>
        <mxCell id="1dLxYRQWP7nbCFLP-ZYz-110" value="&lt;b style=&quot;font-size: 12px&quot;&gt;Дневник&lt;/b&gt;" style="text;html=1;strokeColor=none;fillColor=none;align=left;verticalAlign=middle;whiteSpace=wrap;rounded=0;fontSize=12;" parent="1dLxYRQWP7nbCFLP-ZYz-79" vertex="1">
          <mxGeometry x="390" y="410" width="200" height="30" as="geometry" />
        </mxCell>
        <mxCell id="xyOZBkOWaDU2QLVAfHGh-1" value="Journal" style="shape=table;startSize=30;container=1;collapsible=1;childLayout=tableLayout;fixedRows=1;rowLines=0;fontStyle=1;align=center;resizeLast=1;" vertex="1" parent="1">
          <mxGeometry x="-1020" y="180" width="180" height="160" as="geometry" />
        </mxCell>
        <mxCell id="xyOZBkOWaDU2QLVAfHGh-2" value="" style="shape=tableRow;horizontal=0;startSize=0;swimlaneHead=0;swimlaneBody=0;fillColor=none;collapsible=0;dropTarget=0;points=[[0,0.5],[1,0.5]];portConstraint=eastwest;top=0;left=0;right=0;bottom=1;" vertex="1" parent="xyOZBkOWaDU2QLVAfHGh-1">
          <mxGeometry y="30" width="180" height="30" as="geometry" />
        </mxCell>
        <mxCell id="xyOZBkOWaDU2QLVAfHGh-3" value="PK" style="shape=partialRectangle;connectable=0;fillColor=none;top=0;left=0;bottom=0;right=0;fontStyle=1;overflow=hidden;" vertex="1" parent="xyOZBkOWaDU2QLVAfHGh-2">
          <mxGeometry width="30" height="30" as="geometry">
            <mxRectangle width="30" height="30" as="alternateBounds" />
          </mxGeometry>
        </mxCell>
        <mxCell id="xyOZBkOWaDU2QLVAfHGh-4" value="JournalId" style="shape=partialRectangle;connectable=0;fillColor=none;top=0;left=0;bottom=0;right=0;align=left;spacingLeft=6;fontStyle=5;overflow=hidden;" vertex="1" parent="xyOZBkOWaDU2QLVAfHGh-2">
          <mxGeometry x="30" width="150" height="30" as="geometry">
            <mxRectangle width="150" height="30" as="alternateBounds" />
          </mxGeometry>
        </mxCell>
        <mxCell id="xyOZBkOWaDU2QLVAfHGh-5" value="" style="shape=tableRow;horizontal=0;startSize=0;swimlaneHead=0;swimlaneBody=0;fillColor=none;collapsible=0;dropTarget=0;points=[[0,0.5],[1,0.5]];portConstraint=eastwest;top=0;left=0;right=0;bottom=0;" vertex="1" parent="xyOZBkOWaDU2QLVAfHGh-1">
          <mxGeometry y="60" width="180" height="30" as="geometry" />
        </mxCell>
        <mxCell id="xyOZBkOWaDU2QLVAfHGh-6" value="" style="shape=partialRectangle;connectable=0;fillColor=none;top=0;left=0;bottom=0;right=0;editable=1;overflow=hidden;" vertex="1" parent="xyOZBkOWaDU2QLVAfHGh-5">
          <mxGeometry width="30" height="30" as="geometry">
            <mxRectangle width="30" height="30" as="alternateBounds" />
          </mxGeometry>
        </mxCell>
        <mxCell id="xyOZBkOWaDU2QLVAfHGh-7" value="group_id" style="shape=partialRectangle;connectable=0;fillColor=none;top=0;left=0;bottom=0;right=0;align=left;spacingLeft=6;overflow=hidden;" vertex="1" parent="xyOZBkOWaDU2QLVAfHGh-5">
          <mxGeometry x="30" width="150" height="30" as="geometry">
            <mxRectangle width="150" height="30" as="alternateBounds" />
          </mxGeometry>
        </mxCell>
        <mxCell id="xyOZBkOWaDU2QLVAfHGh-8" value="" style="shape=tableRow;horizontal=0;startSize=0;swimlaneHead=0;swimlaneBody=0;fillColor=none;collapsible=0;dropTarget=0;points=[[0,0.5],[1,0.5]];portConstraint=eastwest;top=0;left=0;right=0;bottom=0;" vertex="1" parent="xyOZBkOWaDU2QLVAfHGh-1">
          <mxGeometry y="90" width="180" height="30" as="geometry" />
        </mxCell>
        <mxCell id="xyOZBkOWaDU2QLVAfHGh-9" value="" style="shape=partialRectangle;connectable=0;fillColor=none;top=0;left=0;bottom=0;right=0;editable=1;overflow=hidden;" vertex="1" parent="xyOZBkOWaDU2QLVAfHGh-8">
          <mxGeometry width="30" height="30" as="geometry">
            <mxRectangle width="30" height="30" as="alternateBounds" />
          </mxGeometry>
        </mxCell>
        <mxCell id="xyOZBkOWaDU2QLVAfHGh-10" value="Row 2" style="shape=partialRectangle;connectable=0;fillColor=none;top=0;left=0;bottom=0;right=0;align=left;spacingLeft=6;overflow=hidden;" vertex="1" parent="xyOZBkOWaDU2QLVAfHGh-8">
          <mxGeometry x="30" width="150" height="30" as="geometry">
            <mxRectangle width="150" height="30" as="alternateBounds" />
          </mxGeometry>
        </mxCell>
        <mxCell id="xyOZBkOWaDU2QLVAfHGh-11" value="" style="shape=tableRow;horizontal=0;startSize=0;swimlaneHead=0;swimlaneBody=0;fillColor=none;collapsible=0;dropTarget=0;points=[[0,0.5],[1,0.5]];portConstraint=eastwest;top=0;left=0;right=0;bottom=0;" vertex="1" parent="xyOZBkOWaDU2QLVAfHGh-1">
          <mxGeometry y="120" width="180" height="30" as="geometry" />
        </mxCell>
        <mxCell id="xyOZBkOWaDU2QLVAfHGh-12" value="" style="shape=partialRectangle;connectable=0;fillColor=none;top=0;left=0;bottom=0;right=0;editable=1;overflow=hidden;" vertex="1" parent="xyOZBkOWaDU2QLVAfHGh-11">
          <mxGeometry width="30" height="30" as="geometry">
            <mxRectangle width="30" height="30" as="alternateBounds" />
          </mxGeometry>
        </mxCell>
        <mxCell id="xyOZBkOWaDU2QLVAfHGh-13" value="Row 3" style="shape=partialRectangle;connectable=0;fillColor=none;top=0;left=0;bottom=0;right=0;align=left;spacingLeft=6;overflow=hidden;" vertex="1" parent="xyOZBkOWaDU2QLVAfHGh-11">
          <mxGeometry x="30" width="150" height="30" as="geometry">
            <mxRectangle width="150" height="30" as="alternateBounds" />
          </mxGeometry>
        </mxCell>
        <mxCell id="xyOZBkOWaDU2QLVAfHGh-14" value="" style="edgeStyle=entityRelationEdgeStyle;fontSize=12;html=1;endArrow=ERoneToMany;rounded=0;" edge="1" parent="1" source="Ds0_8YYltSqKF31_-xEG-56" target="xyOZBkOWaDU2QLVAfHGh-5">
          <mxGeometry width="100" height="100" relative="1" as="geometry">
            <mxPoint x="-740" y="150" as="sourcePoint" />
            <mxPoint x="-640" y="50" as="targetPoint" />
          </mxGeometry>
        </mxCell>
        <mxCell id="xyOZBkOWaDU2QLVAfHGh-15" value="Table" style="shape=table;startSize=30;container=1;collapsible=1;childLayout=tableLayout;fixedRows=1;rowLines=0;fontStyle=1;align=center;resizeLast=1;" vertex="1" parent="1">
          <mxGeometry x="-470" y="-1090" width="180" height="160" as="geometry" />
        </mxCell>
        <mxCell id="xyOZBkOWaDU2QLVAfHGh-16" value="" style="shape=tableRow;horizontal=0;startSize=0;swimlaneHead=0;swimlaneBody=0;fillColor=none;collapsible=0;dropTarget=0;points=[[0,0.5],[1,0.5]];portConstraint=eastwest;top=0;left=0;right=0;bottom=1;" vertex="1" parent="xyOZBkOWaDU2QLVAfHGh-15">
          <mxGeometry y="30" width="180" height="30" as="geometry" />
        </mxCell>
        <mxCell id="xyOZBkOWaDU2QLVAfHGh-17" value="PK" style="shape=partialRectangle;connectable=0;fillColor=none;top=0;left=0;bottom=0;right=0;fontStyle=1;overflow=hidden;" vertex="1" parent="xyOZBkOWaDU2QLVAfHGh-16">
          <mxGeometry width="30" height="30" as="geometry">
            <mxRectangle width="30" height="30" as="alternateBounds" />
          </mxGeometry>
        </mxCell>
        <mxCell id="xyOZBkOWaDU2QLVAfHGh-18" value="UniqueID" style="shape=partialRectangle;connectable=0;fillColor=none;top=0;left=0;bottom=0;right=0;align=left;spacingLeft=6;fontStyle=5;overflow=hidden;" vertex="1" parent="xyOZBkOWaDU2QLVAfHGh-16">
          <mxGeometry x="30" width="150" height="30" as="geometry">
            <mxRectangle width="150" height="30" as="alternateBounds" />
          </mxGeometry>
        </mxCell>
        <mxCell id="xyOZBkOWaDU2QLVAfHGh-19" value="" style="shape=tableRow;horizontal=0;startSize=0;swimlaneHead=0;swimlaneBody=0;fillColor=none;collapsible=0;dropTarget=0;points=[[0,0.5],[1,0.5]];portConstraint=eastwest;top=0;left=0;right=0;bottom=0;" vertex="1" parent="xyOZBkOWaDU2QLVAfHGh-15">
          <mxGeometry y="60" width="180" height="30" as="geometry" />
        </mxCell>
        <mxCell id="xyOZBkOWaDU2QLVAfHGh-20" value="" style="shape=partialRectangle;connectable=0;fillColor=none;top=0;left=0;bottom=0;right=0;editable=1;overflow=hidden;" vertex="1" parent="xyOZBkOWaDU2QLVAfHGh-19">
          <mxGeometry width="30" height="30" as="geometry">
            <mxRectangle width="30" height="30" as="alternateBounds" />
          </mxGeometry>
        </mxCell>
        <mxCell id="xyOZBkOWaDU2QLVAfHGh-21" value="Row 1" style="shape=partialRectangle;connectable=0;fillColor=none;top=0;left=0;bottom=0;right=0;align=left;spacingLeft=6;overflow=hidden;" vertex="1" parent="xyOZBkOWaDU2QLVAfHGh-19">
          <mxGeometry x="30" width="150" height="30" as="geometry">
            <mxRectangle width="150" height="30" as="alternateBounds" />
          </mxGeometry>
        </mxCell>
        <mxCell id="xyOZBkOWaDU2QLVAfHGh-22" value="" style="shape=tableRow;horizontal=0;startSize=0;swimlaneHead=0;swimlaneBody=0;fillColor=none;collapsible=0;dropTarget=0;points=[[0,0.5],[1,0.5]];portConstraint=eastwest;top=0;left=0;right=0;bottom=0;" vertex="1" parent="xyOZBkOWaDU2QLVAfHGh-15">
          <mxGeometry y="90" width="180" height="30" as="geometry" />
        </mxCell>
        <mxCell id="xyOZBkOWaDU2QLVAfHGh-23" value="" style="shape=partialRectangle;connectable=0;fillColor=none;top=0;left=0;bottom=0;right=0;editable=1;overflow=hidden;" vertex="1" parent="xyOZBkOWaDU2QLVAfHGh-22">
          <mxGeometry width="30" height="30" as="geometry">
            <mxRectangle width="30" height="30" as="alternateBounds" />
          </mxGeometry>
        </mxCell>
        <mxCell id="xyOZBkOWaDU2QLVAfHGh-24" value="Row 2" style="shape=partialRectangle;connectable=0;fillColor=none;top=0;left=0;bottom=0;right=0;align=left;spacingLeft=6;overflow=hidden;" vertex="1" parent="xyOZBkOWaDU2QLVAfHGh-22">
          <mxGeometry x="30" width="150" height="30" as="geometry">
            <mxRectangle width="150" height="30" as="alternateBounds" />
          </mxGeometry>
        </mxCell>
        <mxCell id="xyOZBkOWaDU2QLVAfHGh-25" value="" style="shape=tableRow;horizontal=0;startSize=0;swimlaneHead=0;swimlaneBody=0;fillColor=none;collapsible=0;dropTarget=0;points=[[0,0.5],[1,0.5]];portConstraint=eastwest;top=0;left=0;right=0;bottom=0;" vertex="1" parent="xyOZBkOWaDU2QLVAfHGh-15">
          <mxGeometry y="120" width="180" height="30" as="geometry" />
        </mxCell>
        <mxCell id="xyOZBkOWaDU2QLVAfHGh-26" value="" style="shape=partialRectangle;connectable=0;fillColor=none;top=0;left=0;bottom=0;right=0;editable=1;overflow=hidden;" vertex="1" parent="xyOZBkOWaDU2QLVAfHGh-25">
          <mxGeometry width="30" height="30" as="geometry">
            <mxRectangle width="30" height="30" as="alternateBounds" />
          </mxGeometry>
        </mxCell>
        <mxCell id="xyOZBkOWaDU2QLVAfHGh-27" value="Row 3" style="shape=partialRectangle;connectable=0;fillColor=none;top=0;left=0;bottom=0;right=0;align=left;spacingLeft=6;overflow=hidden;" vertex="1" parent="xyOZBkOWaDU2QLVAfHGh-25">
          <mxGeometry x="30" width="150" height="30" as="geometry">
            <mxRectangle width="150" height="30" as="alternateBounds" />
          </mxGeometry>
        </mxCell>
        <mxCell id="xyOZBkOWaDU2QLVAfHGh-28" value="subject" style="shape=table;startSize=30;container=1;collapsible=1;childLayout=tableLayout;fixedRows=1;rowLines=0;fontStyle=1;align=center;resizeLast=1;" vertex="1" parent="1">
          <mxGeometry x="-1400" y="-1070" width="180" height="100" as="geometry" />
        </mxCell>
        <mxCell id="xyOZBkOWaDU2QLVAfHGh-29" value="" style="shape=tableRow;horizontal=0;startSize=0;swimlaneHead=0;swimlaneBody=0;fillColor=none;collapsible=0;dropTarget=0;points=[[0,0.5],[1,0.5]];portConstraint=eastwest;top=0;left=0;right=0;bottom=1;" vertex="1" parent="xyOZBkOWaDU2QLVAfHGh-28">
          <mxGeometry y="30" width="180" height="30" as="geometry" />
        </mxCell>
        <mxCell id="xyOZBkOWaDU2QLVAfHGh-30" value="PK" style="shape=partialRectangle;connectable=0;fillColor=none;top=0;left=0;bottom=0;right=0;fontStyle=1;overflow=hidden;" vertex="1" parent="xyOZBkOWaDU2QLVAfHGh-29">
          <mxGeometry width="30" height="30" as="geometry">
            <mxRectangle width="30" height="30" as="alternateBounds" />
          </mxGeometry>
        </mxCell>
        <mxCell id="xyOZBkOWaDU2QLVAfHGh-31" value="subject_id" style="shape=partialRectangle;connectable=0;fillColor=none;top=0;left=0;bottom=0;right=0;align=left;spacingLeft=6;fontStyle=5;overflow=hidden;" vertex="1" parent="xyOZBkOWaDU2QLVAfHGh-29">
          <mxGeometry x="30" width="150" height="30" as="geometry">
            <mxRectangle width="150" height="30" as="alternateBounds" />
          </mxGeometry>
        </mxCell>
        <mxCell id="xyOZBkOWaDU2QLVAfHGh-32" value="" style="shape=tableRow;horizontal=0;startSize=0;swimlaneHead=0;swimlaneBody=0;fillColor=none;collapsible=0;dropTarget=0;points=[[0,0.5],[1,0.5]];portConstraint=eastwest;top=0;left=0;right=0;bottom=0;" vertex="1" parent="xyOZBkOWaDU2QLVAfHGh-28">
          <mxGeometry y="60" width="180" height="30" as="geometry" />
        </mxCell>
        <mxCell id="xyOZBkOWaDU2QLVAfHGh-33" value="" style="shape=partialRectangle;connectable=0;fillColor=none;top=0;left=0;bottom=0;right=0;editable=1;overflow=hidden;" vertex="1" parent="xyOZBkOWaDU2QLVAfHGh-32">
          <mxGeometry width="30" height="30" as="geometry">
            <mxRectangle width="30" height="30" as="alternateBounds" />
          </mxGeometry>
        </mxCell>
        <mxCell id="xyOZBkOWaDU2QLVAfHGh-34" value="name" style="shape=partialRectangle;connectable=0;fillColor=none;top=0;left=0;bottom=0;right=0;align=left;spacingLeft=6;overflow=hidden;" vertex="1" parent="xyOZBkOWaDU2QLVAfHGh-32">
          <mxGeometry x="30" width="150" height="30" as="geometry">
            <mxRectangle width="150" height="30" as="alternateBounds" />
          </mxGeometry>
        </mxCell>
        <mxCell id="xyOZBkOWaDU2QLVAfHGh-41" value="teacher" style="shape=table;startSize=30;container=1;collapsible=1;childLayout=tableLayout;fixedRows=1;rowLines=0;fontStyle=1;align=center;resizeLast=1;fillColor=#d5e8d4;strokeColor=#82b366;" vertex="1" parent="1">
          <mxGeometry x="-2060" y="-1020" width="180" height="280" as="geometry" />
        </mxCell>
        <mxCell id="xyOZBkOWaDU2QLVAfHGh-42" value="" style="shape=tableRow;horizontal=0;startSize=0;swimlaneHead=0;swimlaneBody=0;fillColor=none;collapsible=0;dropTarget=0;points=[[0,0.5],[1,0.5]];portConstraint=eastwest;top=0;left=0;right=0;bottom=1;" vertex="1" parent="xyOZBkOWaDU2QLVAfHGh-41">
          <mxGeometry y="30" width="180" height="30" as="geometry" />
        </mxCell>
        <mxCell id="xyOZBkOWaDU2QLVAfHGh-43" value="PK" style="shape=partialRectangle;connectable=0;fillColor=none;top=0;left=0;bottom=0;right=0;fontStyle=1;overflow=hidden;" vertex="1" parent="xyOZBkOWaDU2QLVAfHGh-42">
          <mxGeometry width="30" height="30" as="geometry">
            <mxRectangle width="30" height="30" as="alternateBounds" />
          </mxGeometry>
        </mxCell>
        <mxCell id="xyOZBkOWaDU2QLVAfHGh-44" value="teacher_id" style="shape=partialRectangle;connectable=0;fillColor=none;top=0;left=0;bottom=0;right=0;align=left;spacingLeft=6;fontStyle=5;overflow=hidden;" vertex="1" parent="xyOZBkOWaDU2QLVAfHGh-42">
          <mxGeometry x="30" width="150" height="30" as="geometry">
            <mxRectangle width="150" height="30" as="alternateBounds" />
          </mxGeometry>
        </mxCell>
        <mxCell id="xyOZBkOWaDU2QLVAfHGh-45" value="" style="shape=tableRow;horizontal=0;startSize=0;swimlaneHead=0;swimlaneBody=0;fillColor=none;collapsible=0;dropTarget=0;points=[[0,0.5],[1,0.5]];portConstraint=eastwest;top=0;left=0;right=0;bottom=0;" vertex="1" parent="xyOZBkOWaDU2QLVAfHGh-41">
          <mxGeometry y="60" width="180" height="30" as="geometry" />
        </mxCell>
        <mxCell id="xyOZBkOWaDU2QLVAfHGh-46" value="" style="shape=partialRectangle;connectable=0;fillColor=none;top=0;left=0;bottom=0;right=0;editable=1;overflow=hidden;" vertex="1" parent="xyOZBkOWaDU2QLVAfHGh-45">
          <mxGeometry width="30" height="30" as="geometry">
            <mxRectangle width="30" height="30" as="alternateBounds" />
          </mxGeometry>
        </mxCell>
        <mxCell id="xyOZBkOWaDU2QLVAfHGh-47" value="name" style="shape=partialRectangle;connectable=0;fillColor=none;top=0;left=0;bottom=0;right=0;align=left;spacingLeft=6;overflow=hidden;" vertex="1" parent="xyOZBkOWaDU2QLVAfHGh-45">
          <mxGeometry x="30" width="150" height="30" as="geometry">
            <mxRectangle width="150" height="30" as="alternateBounds" />
          </mxGeometry>
        </mxCell>
        <mxCell id="xyOZBkOWaDU2QLVAfHGh-48" value="" style="shape=tableRow;horizontal=0;startSize=0;swimlaneHead=0;swimlaneBody=0;fillColor=none;collapsible=0;dropTarget=0;points=[[0,0.5],[1,0.5]];portConstraint=eastwest;top=0;left=0;right=0;bottom=0;" vertex="1" parent="xyOZBkOWaDU2QLVAfHGh-41">
          <mxGeometry y="90" width="180" height="30" as="geometry" />
        </mxCell>
        <mxCell id="xyOZBkOWaDU2QLVAfHGh-49" value="" style="shape=partialRectangle;connectable=0;fillColor=none;top=0;left=0;bottom=0;right=0;editable=1;overflow=hidden;" vertex="1" parent="xyOZBkOWaDU2QLVAfHGh-48">
          <mxGeometry width="30" height="30" as="geometry">
            <mxRectangle width="30" height="30" as="alternateBounds" />
          </mxGeometry>
        </mxCell>
        <mxCell id="xyOZBkOWaDU2QLVAfHGh-50" value="subject_id" style="shape=partialRectangle;connectable=0;fillColor=none;top=0;left=0;bottom=0;right=0;align=left;spacingLeft=6;overflow=hidden;" vertex="1" parent="xyOZBkOWaDU2QLVAfHGh-48">
          <mxGeometry x="30" width="150" height="30" as="geometry">
            <mxRectangle width="150" height="30" as="alternateBounds" />
          </mxGeometry>
        </mxCell>
        <mxCell id="xyOZBkOWaDU2QLVAfHGh-51" value="" style="shape=tableRow;horizontal=0;startSize=0;swimlaneHead=0;swimlaneBody=0;fillColor=none;collapsible=0;dropTarget=0;points=[[0,0.5],[1,0.5]];portConstraint=eastwest;top=0;left=0;right=0;bottom=0;" vertex="1" parent="xyOZBkOWaDU2QLVAfHGh-41">
          <mxGeometry y="120" width="180" height="30" as="geometry" />
        </mxCell>
        <mxCell id="xyOZBkOWaDU2QLVAfHGh-52" value="" style="shape=partialRectangle;connectable=0;fillColor=none;top=0;left=0;bottom=0;right=0;editable=1;overflow=hidden;" vertex="1" parent="xyOZBkOWaDU2QLVAfHGh-51">
          <mxGeometry width="30" height="30" as="geometry">
            <mxRectangle width="30" height="30" as="alternateBounds" />
          </mxGeometry>
        </mxCell>
        <mxCell id="xyOZBkOWaDU2QLVAfHGh-53" value="surname" style="shape=partialRectangle;connectable=0;fillColor=none;top=0;left=0;bottom=0;right=0;align=left;spacingLeft=6;overflow=hidden;" vertex="1" parent="xyOZBkOWaDU2QLVAfHGh-51">
          <mxGeometry x="30" width="150" height="30" as="geometry">
            <mxRectangle width="150" height="30" as="alternateBounds" />
          </mxGeometry>
        </mxCell>
        <mxCell id="xyOZBkOWaDU2QLVAfHGh-54" value="" style="shape=tableRow;horizontal=0;startSize=0;swimlaneHead=0;swimlaneBody=0;fillColor=none;collapsible=0;dropTarget=0;points=[[0,0.5],[1,0.5]];portConstraint=eastwest;top=0;left=0;right=0;bottom=0;" vertex="1" parent="xyOZBkOWaDU2QLVAfHGh-41">
          <mxGeometry y="150" width="180" height="30" as="geometry" />
        </mxCell>
        <mxCell id="xyOZBkOWaDU2QLVAfHGh-55" value="" style="shape=partialRectangle;connectable=0;fillColor=none;top=0;left=0;bottom=0;right=0;editable=1;overflow=hidden;" vertex="1" parent="xyOZBkOWaDU2QLVAfHGh-54">
          <mxGeometry width="30" height="30" as="geometry">
            <mxRectangle width="30" height="30" as="alternateBounds" />
          </mxGeometry>
        </mxCell>
        <mxCell id="xyOZBkOWaDU2QLVAfHGh-56" value="patronymic" style="shape=partialRectangle;connectable=0;fillColor=none;top=0;left=0;bottom=0;right=0;align=left;spacingLeft=6;overflow=hidden;" vertex="1" parent="xyOZBkOWaDU2QLVAfHGh-54">
          <mxGeometry x="30" width="150" height="30" as="geometry">
            <mxRectangle width="150" height="30" as="alternateBounds" />
          </mxGeometry>
        </mxCell>
        <mxCell id="xyOZBkOWaDU2QLVAfHGh-57" value="" style="shape=tableRow;horizontal=0;startSize=0;swimlaneHead=0;swimlaneBody=0;fillColor=none;collapsible=0;dropTarget=0;points=[[0,0.5],[1,0.5]];portConstraint=eastwest;top=0;left=0;right=0;bottom=0;" vertex="1" parent="xyOZBkOWaDU2QLVAfHGh-41">
          <mxGeometry y="180" width="180" height="30" as="geometry" />
        </mxCell>
        <mxCell id="xyOZBkOWaDU2QLVAfHGh-58" value="" style="shape=partialRectangle;connectable=0;fillColor=none;top=0;left=0;bottom=0;right=0;editable=1;overflow=hidden;" vertex="1" parent="xyOZBkOWaDU2QLVAfHGh-57">
          <mxGeometry width="30" height="30" as="geometry">
            <mxRectangle width="30" height="30" as="alternateBounds" />
          </mxGeometry>
        </mxCell>
        <mxCell id="xyOZBkOWaDU2QLVAfHGh-59" value="about" style="shape=partialRectangle;connectable=0;fillColor=none;top=0;left=0;bottom=0;right=0;align=left;spacingLeft=6;overflow=hidden;" vertex="1" parent="xyOZBkOWaDU2QLVAfHGh-57">
          <mxGeometry x="30" width="150" height="30" as="geometry">
            <mxRectangle width="150" height="30" as="alternateBounds" />
          </mxGeometry>
        </mxCell>
        <mxCell id="xyOZBkOWaDU2QLVAfHGh-60" value="" style="shape=tableRow;horizontal=0;startSize=0;swimlaneHead=0;swimlaneBody=0;fillColor=none;collapsible=0;dropTarget=0;points=[[0,0.5],[1,0.5]];portConstraint=eastwest;top=0;left=0;right=0;bottom=0;" vertex="1" parent="xyOZBkOWaDU2QLVAfHGh-41">
          <mxGeometry y="210" width="180" height="30" as="geometry" />
        </mxCell>
        <mxCell id="xyOZBkOWaDU2QLVAfHGh-61" value="" style="shape=partialRectangle;connectable=0;fillColor=none;top=0;left=0;bottom=0;right=0;editable=1;overflow=hidden;" vertex="1" parent="xyOZBkOWaDU2QLVAfHGh-60">
          <mxGeometry width="30" height="30" as="geometry">
            <mxRectangle width="30" height="30" as="alternateBounds" />
          </mxGeometry>
        </mxCell>
        <mxCell id="xyOZBkOWaDU2QLVAfHGh-62" value="status" style="shape=partialRectangle;connectable=0;fillColor=none;top=0;left=0;bottom=0;right=0;align=left;spacingLeft=6;overflow=hidden;" vertex="1" parent="xyOZBkOWaDU2QLVAfHGh-60">
          <mxGeometry x="30" width="150" height="30" as="geometry">
            <mxRectangle width="150" height="30" as="alternateBounds" />
          </mxGeometry>
        </mxCell>
        <mxCell id="xyOZBkOWaDU2QLVAfHGh-63" value="" style="shape=tableRow;horizontal=0;startSize=0;swimlaneHead=0;swimlaneBody=0;fillColor=none;collapsible=0;dropTarget=0;points=[[0,0.5],[1,0.5]];portConstraint=eastwest;top=0;left=0;right=0;bottom=0;" vertex="1" parent="xyOZBkOWaDU2QLVAfHGh-41">
          <mxGeometry y="240" width="180" height="30" as="geometry" />
        </mxCell>
        <mxCell id="xyOZBkOWaDU2QLVAfHGh-64" value="" style="shape=partialRectangle;connectable=0;fillColor=none;top=0;left=0;bottom=0;right=0;editable=1;overflow=hidden;" vertex="1" parent="xyOZBkOWaDU2QLVAfHGh-63">
          <mxGeometry width="30" height="30" as="geometry">
            <mxRectangle width="30" height="30" as="alternateBounds" />
          </mxGeometry>
        </mxCell>
        <mxCell id="xyOZBkOWaDU2QLVAfHGh-65" value="age" style="shape=partialRectangle;connectable=0;fillColor=none;top=0;left=0;bottom=0;right=0;align=left;spacingLeft=6;overflow=hidden;" vertex="1" parent="xyOZBkOWaDU2QLVAfHGh-63">
          <mxGeometry x="30" width="150" height="30" as="geometry">
            <mxRectangle width="150" height="30" as="alternateBounds" />
          </mxGeometry>
        </mxCell>
        <mxCell id="xyOZBkOWaDU2QLVAfHGh-66" value="" style="edgeStyle=entityRelationEdgeStyle;fontSize=12;html=1;endArrow=ERoneToMany;rounded=0;" edge="1" parent="1" source="xyOZBkOWaDU2QLVAfHGh-29" target="xyOZBkOWaDU2QLVAfHGh-179">
          <mxGeometry width="100" height="100" relative="1" as="geometry">
            <mxPoint x="-1580" y="-830" as="sourcePoint" />
            <mxPoint x="-1450" y="-950" as="targetPoint" />
          </mxGeometry>
        </mxCell>
        <mxCell id="xyOZBkOWaDU2QLVAfHGh-68" value="teacher_subject" style="shape=table;startSize=30;container=1;collapsible=1;childLayout=tableLayout;fixedRows=1;rowLines=0;fontStyle=1;align=center;resizeLast=1;" vertex="1" parent="1">
          <mxGeometry x="-1760" y="-1169" width="180" height="130" as="geometry" />
        </mxCell>
        <mxCell id="xyOZBkOWaDU2QLVAfHGh-69" value="" style="shape=tableRow;horizontal=0;startSize=0;swimlaneHead=0;swimlaneBody=0;fillColor=none;collapsible=0;dropTarget=0;points=[[0,0.5],[1,0.5]];portConstraint=eastwest;top=0;left=0;right=0;bottom=1;" vertex="1" parent="xyOZBkOWaDU2QLVAfHGh-68">
          <mxGeometry y="30" width="180" height="30" as="geometry" />
        </mxCell>
        <mxCell id="xyOZBkOWaDU2QLVAfHGh-70" value="PK" style="shape=partialRectangle;connectable=0;fillColor=none;top=0;left=0;bottom=0;right=0;fontStyle=1;overflow=hidden;" vertex="1" parent="xyOZBkOWaDU2QLVAfHGh-69">
          <mxGeometry width="30" height="30" as="geometry">
            <mxRectangle width="30" height="30" as="alternateBounds" />
          </mxGeometry>
        </mxCell>
        <mxCell id="xyOZBkOWaDU2QLVAfHGh-71" value="teacher_subject_id" style="shape=partialRectangle;connectable=0;fillColor=none;top=0;left=0;bottom=0;right=0;align=left;spacingLeft=6;fontStyle=5;overflow=hidden;" vertex="1" parent="xyOZBkOWaDU2QLVAfHGh-69">
          <mxGeometry x="30" width="150" height="30" as="geometry">
            <mxRectangle width="150" height="30" as="alternateBounds" />
          </mxGeometry>
        </mxCell>
        <mxCell id="xyOZBkOWaDU2QLVAfHGh-72" value="" style="shape=tableRow;horizontal=0;startSize=0;swimlaneHead=0;swimlaneBody=0;fillColor=none;collapsible=0;dropTarget=0;points=[[0,0.5],[1,0.5]];portConstraint=eastwest;top=0;left=0;right=0;bottom=0;" vertex="1" parent="xyOZBkOWaDU2QLVAfHGh-68">
          <mxGeometry y="60" width="180" height="30" as="geometry" />
        </mxCell>
        <mxCell id="xyOZBkOWaDU2QLVAfHGh-73" value="" style="shape=partialRectangle;connectable=0;fillColor=none;top=0;left=0;bottom=0;right=0;editable=1;overflow=hidden;" vertex="1" parent="xyOZBkOWaDU2QLVAfHGh-72">
          <mxGeometry width="30" height="30" as="geometry">
            <mxRectangle width="30" height="30" as="alternateBounds" />
          </mxGeometry>
        </mxCell>
        <mxCell id="xyOZBkOWaDU2QLVAfHGh-74" value="teacher_id" style="shape=partialRectangle;connectable=0;fillColor=none;top=0;left=0;bottom=0;right=0;align=left;spacingLeft=6;overflow=hidden;" vertex="1" parent="xyOZBkOWaDU2QLVAfHGh-72">
          <mxGeometry x="30" width="150" height="30" as="geometry">
            <mxRectangle width="150" height="30" as="alternateBounds" />
          </mxGeometry>
        </mxCell>
        <mxCell id="xyOZBkOWaDU2QLVAfHGh-75" value="" style="shape=tableRow;horizontal=0;startSize=0;swimlaneHead=0;swimlaneBody=0;fillColor=none;collapsible=0;dropTarget=0;points=[[0,0.5],[1,0.5]];portConstraint=eastwest;top=0;left=0;right=0;bottom=0;" vertex="1" parent="xyOZBkOWaDU2QLVAfHGh-68">
          <mxGeometry y="90" width="180" height="30" as="geometry" />
        </mxCell>
        <mxCell id="xyOZBkOWaDU2QLVAfHGh-76" value="" style="shape=partialRectangle;connectable=0;fillColor=none;top=0;left=0;bottom=0;right=0;editable=1;overflow=hidden;" vertex="1" parent="xyOZBkOWaDU2QLVAfHGh-75">
          <mxGeometry width="30" height="30" as="geometry">
            <mxRectangle width="30" height="30" as="alternateBounds" />
          </mxGeometry>
        </mxCell>
        <mxCell id="xyOZBkOWaDU2QLVAfHGh-77" value="subject_id" style="shape=partialRectangle;connectable=0;fillColor=none;top=0;left=0;bottom=0;right=0;align=left;spacingLeft=6;overflow=hidden;" vertex="1" parent="xyOZBkOWaDU2QLVAfHGh-75">
          <mxGeometry x="30" width="150" height="30" as="geometry">
            <mxRectangle width="150" height="30" as="alternateBounds" />
          </mxGeometry>
        </mxCell>
        <mxCell id="xyOZBkOWaDU2QLVAfHGh-81" value="" style="edgeStyle=entityRelationEdgeStyle;fontSize=12;html=1;endArrow=ERoneToMany;rounded=0;" edge="1" parent="1" source="xyOZBkOWaDU2QLVAfHGh-42" target="xyOZBkOWaDU2QLVAfHGh-72">
          <mxGeometry width="100" height="100" relative="1" as="geometry">
            <mxPoint x="-1560" y="-620" as="sourcePoint" />
            <mxPoint x="-1460" y="-720" as="targetPoint" />
          </mxGeometry>
        </mxCell>
        <mxCell id="xyOZBkOWaDU2QLVAfHGh-95" value="&lt;div style=&quot;text-align: left&quot;&gt;У преподавателя могут быть свои группы&lt;/div&gt;" style="text;html=1;align=center;verticalAlign=middle;resizable=0;points=[];autosize=1;strokeColor=none;fillColor=none;fontStyle=1;rotation=-59;" vertex="1" parent="1">
          <mxGeometry x="-1120" y="20" width="270" height="20" as="geometry" />
        </mxCell>
        <mxCell id="xyOZBkOWaDU2QLVAfHGh-96" value="group" style="shape=table;startSize=30;container=1;collapsible=1;childLayout=tableLayout;fixedRows=1;rowLines=0;fontStyle=1;align=center;resizeLast=1;fillColor=#d5e8d4;strokeColor=#82b366;" vertex="1" parent="1">
          <mxGeometry x="-1160" y="-1190" width="180" height="220" as="geometry" />
        </mxCell>
        <mxCell id="xyOZBkOWaDU2QLVAfHGh-97" value="" style="shape=tableRow;horizontal=0;startSize=0;swimlaneHead=0;swimlaneBody=0;fillColor=none;collapsible=0;dropTarget=0;points=[[0,0.5],[1,0.5]];portConstraint=eastwest;top=0;left=0;right=0;bottom=1;" vertex="1" parent="xyOZBkOWaDU2QLVAfHGh-96">
          <mxGeometry y="30" width="180" height="30" as="geometry" />
        </mxCell>
        <mxCell id="xyOZBkOWaDU2QLVAfHGh-98" value="PK" style="shape=partialRectangle;connectable=0;fillColor=none;top=0;left=0;bottom=0;right=0;fontStyle=1;overflow=hidden;" vertex="1" parent="xyOZBkOWaDU2QLVAfHGh-97">
          <mxGeometry width="30" height="30" as="geometry">
            <mxRectangle width="30" height="30" as="alternateBounds" />
          </mxGeometry>
        </mxCell>
        <mxCell id="xyOZBkOWaDU2QLVAfHGh-99" value="group_id" style="shape=partialRectangle;connectable=0;fillColor=none;top=0;left=0;bottom=0;right=0;align=left;spacingLeft=6;fontStyle=5;overflow=hidden;" vertex="1" parent="xyOZBkOWaDU2QLVAfHGh-97">
          <mxGeometry x="30" width="150" height="30" as="geometry">
            <mxRectangle width="150" height="30" as="alternateBounds" />
          </mxGeometry>
        </mxCell>
        <mxCell id="xyOZBkOWaDU2QLVAfHGh-100" value="" style="shape=tableRow;horizontal=0;startSize=0;swimlaneHead=0;swimlaneBody=0;fillColor=none;collapsible=0;dropTarget=0;points=[[0,0.5],[1,0.5]];portConstraint=eastwest;top=0;left=0;right=0;bottom=0;" vertex="1" parent="xyOZBkOWaDU2QLVAfHGh-96">
          <mxGeometry y="60" width="180" height="30" as="geometry" />
        </mxCell>
        <mxCell id="xyOZBkOWaDU2QLVAfHGh-101" value="" style="shape=partialRectangle;connectable=0;fillColor=none;top=0;left=0;bottom=0;right=0;editable=1;overflow=hidden;" vertex="1" parent="xyOZBkOWaDU2QLVAfHGh-100">
          <mxGeometry width="30" height="30" as="geometry">
            <mxRectangle width="30" height="30" as="alternateBounds" />
          </mxGeometry>
        </mxCell>
        <mxCell id="xyOZBkOWaDU2QLVAfHGh-102" value="spec_id" style="shape=partialRectangle;connectable=0;fillColor=none;top=0;left=0;bottom=0;right=0;align=left;spacingLeft=6;overflow=hidden;" vertex="1" parent="xyOZBkOWaDU2QLVAfHGh-100">
          <mxGeometry x="30" width="150" height="30" as="geometry">
            <mxRectangle width="150" height="30" as="alternateBounds" />
          </mxGeometry>
        </mxCell>
        <mxCell id="xyOZBkOWaDU2QLVAfHGh-103" value="" style="shape=tableRow;horizontal=0;startSize=0;swimlaneHead=0;swimlaneBody=0;fillColor=none;collapsible=0;dropTarget=0;points=[[0,0.5],[1,0.5]];portConstraint=eastwest;top=0;left=0;right=0;bottom=0;" vertex="1" parent="xyOZBkOWaDU2QLVAfHGh-96">
          <mxGeometry y="90" width="180" height="30" as="geometry" />
        </mxCell>
        <mxCell id="xyOZBkOWaDU2QLVAfHGh-104" value="" style="shape=partialRectangle;connectable=0;fillColor=none;top=0;left=0;bottom=0;right=0;editable=1;overflow=hidden;" vertex="1" parent="xyOZBkOWaDU2QLVAfHGh-103">
          <mxGeometry width="30" height="30" as="geometry">
            <mxRectangle width="30" height="30" as="alternateBounds" />
          </mxGeometry>
        </mxCell>
        <mxCell id="xyOZBkOWaDU2QLVAfHGh-105" value="teacher_id" style="shape=partialRectangle;connectable=0;fillColor=none;top=0;left=0;bottom=0;right=0;align=left;spacingLeft=6;overflow=hidden;" vertex="1" parent="xyOZBkOWaDU2QLVAfHGh-103">
          <mxGeometry x="30" width="150" height="30" as="geometry">
            <mxRectangle width="150" height="30" as="alternateBounds" />
          </mxGeometry>
        </mxCell>
        <mxCell id="xyOZBkOWaDU2QLVAfHGh-106" value="" style="shape=tableRow;horizontal=0;startSize=0;swimlaneHead=0;swimlaneBody=0;fillColor=none;collapsible=0;dropTarget=0;points=[[0,0.5],[1,0.5]];portConstraint=eastwest;top=0;left=0;right=0;bottom=0;" vertex="1" parent="xyOZBkOWaDU2QLVAfHGh-96">
          <mxGeometry y="120" width="180" height="30" as="geometry" />
        </mxCell>
        <mxCell id="xyOZBkOWaDU2QLVAfHGh-107" value="" style="shape=partialRectangle;connectable=0;fillColor=none;top=0;left=0;bottom=0;right=0;editable=1;overflow=hidden;" vertex="1" parent="xyOZBkOWaDU2QLVAfHGh-106">
          <mxGeometry width="30" height="30" as="geometry">
            <mxRectangle width="30" height="30" as="alternateBounds" />
          </mxGeometry>
        </mxCell>
        <mxCell id="xyOZBkOWaDU2QLVAfHGh-108" value="course" style="shape=partialRectangle;connectable=0;fillColor=none;top=0;left=0;bottom=0;right=0;align=left;spacingLeft=6;overflow=hidden;" vertex="1" parent="xyOZBkOWaDU2QLVAfHGh-106">
          <mxGeometry x="30" width="150" height="30" as="geometry">
            <mxRectangle width="150" height="30" as="alternateBounds" />
          </mxGeometry>
        </mxCell>
        <mxCell id="xyOZBkOWaDU2QLVAfHGh-109" value="" style="shape=tableRow;horizontal=0;startSize=0;swimlaneHead=0;swimlaneBody=0;fillColor=none;collapsible=0;dropTarget=0;points=[[0,0.5],[1,0.5]];portConstraint=eastwest;top=0;left=0;right=0;bottom=0;" vertex="1" parent="xyOZBkOWaDU2QLVAfHGh-96">
          <mxGeometry y="150" width="180" height="30" as="geometry" />
        </mxCell>
        <mxCell id="xyOZBkOWaDU2QLVAfHGh-110" value="" style="shape=partialRectangle;connectable=0;fillColor=none;top=0;left=0;bottom=0;right=0;editable=1;overflow=hidden;" vertex="1" parent="xyOZBkOWaDU2QLVAfHGh-109">
          <mxGeometry width="30" height="30" as="geometry">
            <mxRectangle width="30" height="30" as="alternateBounds" />
          </mxGeometry>
        </mxCell>
        <mxCell id="xyOZBkOWaDU2QLVAfHGh-111" value="student_amount" style="shape=partialRectangle;connectable=0;fillColor=none;top=0;left=0;bottom=0;right=0;align=left;spacingLeft=6;overflow=hidden;" vertex="1" parent="xyOZBkOWaDU2QLVAfHGh-109">
          <mxGeometry x="30" width="150" height="30" as="geometry">
            <mxRectangle width="150" height="30" as="alternateBounds" />
          </mxGeometry>
        </mxCell>
        <mxCell id="xyOZBkOWaDU2QLVAfHGh-112" value="" style="shape=tableRow;horizontal=0;startSize=0;swimlaneHead=0;swimlaneBody=0;fillColor=none;collapsible=0;dropTarget=0;points=[[0,0.5],[1,0.5]];portConstraint=eastwest;top=0;left=0;right=0;bottom=0;" vertex="1" parent="xyOZBkOWaDU2QLVAfHGh-96">
          <mxGeometry y="180" width="180" height="30" as="geometry" />
        </mxCell>
        <mxCell id="xyOZBkOWaDU2QLVAfHGh-113" value="" style="shape=partialRectangle;connectable=0;fillColor=none;top=0;left=0;bottom=0;right=0;editable=1;overflow=hidden;" vertex="1" parent="xyOZBkOWaDU2QLVAfHGh-112">
          <mxGeometry width="30" height="30" as="geometry">
            <mxRectangle width="30" height="30" as="alternateBounds" />
          </mxGeometry>
        </mxCell>
        <mxCell id="xyOZBkOWaDU2QLVAfHGh-114" value="year" style="shape=partialRectangle;connectable=0;fillColor=none;top=0;left=0;bottom=0;right=0;align=left;spacingLeft=6;overflow=hidden;" vertex="1" parent="xyOZBkOWaDU2QLVAfHGh-112">
          <mxGeometry x="30" width="150" height="30" as="geometry">
            <mxRectangle width="150" height="30" as="alternateBounds" />
          </mxGeometry>
        </mxCell>
        <mxCell id="xyOZBkOWaDU2QLVAfHGh-117" value="lesson_sheet" style="shape=table;startSize=30;container=1;collapsible=1;childLayout=tableLayout;fixedRows=1;rowLines=0;fontStyle=1;align=center;resizeLast=1;" vertex="1" parent="1">
          <mxGeometry x="-1820" y="-1560" width="180" height="160" as="geometry" />
        </mxCell>
        <mxCell id="xyOZBkOWaDU2QLVAfHGh-118" value="" style="shape=tableRow;horizontal=0;startSize=0;swimlaneHead=0;swimlaneBody=0;fillColor=none;collapsible=0;dropTarget=0;points=[[0,0.5],[1,0.5]];portConstraint=eastwest;top=0;left=0;right=0;bottom=1;" vertex="1" parent="xyOZBkOWaDU2QLVAfHGh-117">
          <mxGeometry y="30" width="180" height="30" as="geometry" />
        </mxCell>
        <mxCell id="xyOZBkOWaDU2QLVAfHGh-119" value="PK" style="shape=partialRectangle;connectable=0;fillColor=none;top=0;left=0;bottom=0;right=0;fontStyle=1;overflow=hidden;" vertex="1" parent="xyOZBkOWaDU2QLVAfHGh-118">
          <mxGeometry width="30" height="30" as="geometry">
            <mxRectangle width="30" height="30" as="alternateBounds" />
          </mxGeometry>
        </mxCell>
        <mxCell id="xyOZBkOWaDU2QLVAfHGh-120" value="lesson_sheet_id" style="shape=partialRectangle;connectable=0;fillColor=none;top=0;left=0;bottom=0;right=0;align=left;spacingLeft=6;fontStyle=5;overflow=hidden;" vertex="1" parent="xyOZBkOWaDU2QLVAfHGh-118">
          <mxGeometry x="30" width="150" height="30" as="geometry">
            <mxRectangle width="150" height="30" as="alternateBounds" />
          </mxGeometry>
        </mxCell>
        <mxCell id="xyOZBkOWaDU2QLVAfHGh-121" value="" style="shape=tableRow;horizontal=0;startSize=0;swimlaneHead=0;swimlaneBody=0;fillColor=none;collapsible=0;dropTarget=0;points=[[0,0.5],[1,0.5]];portConstraint=eastwest;top=0;left=0;right=0;bottom=0;" vertex="1" parent="xyOZBkOWaDU2QLVAfHGh-117">
          <mxGeometry y="60" width="180" height="30" as="geometry" />
        </mxCell>
        <mxCell id="xyOZBkOWaDU2QLVAfHGh-122" value="" style="shape=partialRectangle;connectable=0;fillColor=none;top=0;left=0;bottom=0;right=0;editable=1;overflow=hidden;" vertex="1" parent="xyOZBkOWaDU2QLVAfHGh-121">
          <mxGeometry width="30" height="30" as="geometry">
            <mxRectangle width="30" height="30" as="alternateBounds" />
          </mxGeometry>
        </mxCell>
        <mxCell id="xyOZBkOWaDU2QLVAfHGh-123" value="Row 1" style="shape=partialRectangle;connectable=0;fillColor=none;top=0;left=0;bottom=0;right=0;align=left;spacingLeft=6;overflow=hidden;" vertex="1" parent="xyOZBkOWaDU2QLVAfHGh-121">
          <mxGeometry x="30" width="150" height="30" as="geometry">
            <mxRectangle width="150" height="30" as="alternateBounds" />
          </mxGeometry>
        </mxCell>
        <mxCell id="xyOZBkOWaDU2QLVAfHGh-124" value="" style="shape=tableRow;horizontal=0;startSize=0;swimlaneHead=0;swimlaneBody=0;fillColor=none;collapsible=0;dropTarget=0;points=[[0,0.5],[1,0.5]];portConstraint=eastwest;top=0;left=0;right=0;bottom=0;" vertex="1" parent="xyOZBkOWaDU2QLVAfHGh-117">
          <mxGeometry y="90" width="180" height="30" as="geometry" />
        </mxCell>
        <mxCell id="xyOZBkOWaDU2QLVAfHGh-125" value="" style="shape=partialRectangle;connectable=0;fillColor=none;top=0;left=0;bottom=0;right=0;editable=1;overflow=hidden;" vertex="1" parent="xyOZBkOWaDU2QLVAfHGh-124">
          <mxGeometry width="30" height="30" as="geometry">
            <mxRectangle width="30" height="30" as="alternateBounds" />
          </mxGeometry>
        </mxCell>
        <mxCell id="xyOZBkOWaDU2QLVAfHGh-126" value="Row 2" style="shape=partialRectangle;connectable=0;fillColor=none;top=0;left=0;bottom=0;right=0;align=left;spacingLeft=6;overflow=hidden;" vertex="1" parent="xyOZBkOWaDU2QLVAfHGh-124">
          <mxGeometry x="30" width="150" height="30" as="geometry">
            <mxRectangle width="150" height="30" as="alternateBounds" />
          </mxGeometry>
        </mxCell>
        <mxCell id="xyOZBkOWaDU2QLVAfHGh-127" value="" style="shape=tableRow;horizontal=0;startSize=0;swimlaneHead=0;swimlaneBody=0;fillColor=none;collapsible=0;dropTarget=0;points=[[0,0.5],[1,0.5]];portConstraint=eastwest;top=0;left=0;right=0;bottom=0;" vertex="1" parent="xyOZBkOWaDU2QLVAfHGh-117">
          <mxGeometry y="120" width="180" height="30" as="geometry" />
        </mxCell>
        <mxCell id="xyOZBkOWaDU2QLVAfHGh-128" value="" style="shape=partialRectangle;connectable=0;fillColor=none;top=0;left=0;bottom=0;right=0;editable=1;overflow=hidden;" vertex="1" parent="xyOZBkOWaDU2QLVAfHGh-127">
          <mxGeometry width="30" height="30" as="geometry">
            <mxRectangle width="30" height="30" as="alternateBounds" />
          </mxGeometry>
        </mxCell>
        <mxCell id="xyOZBkOWaDU2QLVAfHGh-129" value="Row 3" style="shape=partialRectangle;connectable=0;fillColor=none;top=0;left=0;bottom=0;right=0;align=left;spacingLeft=6;overflow=hidden;" vertex="1" parent="xyOZBkOWaDU2QLVAfHGh-127">
          <mxGeometry x="30" width="150" height="30" as="geometry">
            <mxRectangle width="150" height="30" as="alternateBounds" />
          </mxGeometry>
        </mxCell>
        <mxCell id="xyOZBkOWaDU2QLVAfHGh-131" value="study_year" style="shape=table;startSize=30;container=1;collapsible=1;childLayout=tableLayout;fixedRows=1;rowLines=0;fontStyle=1;align=center;resizeLast=1;" vertex="1" parent="1">
          <mxGeometry x="-1165" y="-1490" width="180" height="100" as="geometry" />
        </mxCell>
        <mxCell id="xyOZBkOWaDU2QLVAfHGh-132" value="" style="shape=tableRow;horizontal=0;startSize=0;swimlaneHead=0;swimlaneBody=0;fillColor=none;collapsible=0;dropTarget=0;points=[[0,0.5],[1,0.5]];portConstraint=eastwest;top=0;left=0;right=0;bottom=1;" vertex="1" parent="xyOZBkOWaDU2QLVAfHGh-131">
          <mxGeometry y="30" width="180" height="30" as="geometry" />
        </mxCell>
        <mxCell id="xyOZBkOWaDU2QLVAfHGh-133" value="PK" style="shape=partialRectangle;connectable=0;fillColor=none;top=0;left=0;bottom=0;right=0;fontStyle=1;overflow=hidden;" vertex="1" parent="xyOZBkOWaDU2QLVAfHGh-132">
          <mxGeometry width="30" height="30" as="geometry">
            <mxRectangle width="30" height="30" as="alternateBounds" />
          </mxGeometry>
        </mxCell>
        <mxCell id="xyOZBkOWaDU2QLVAfHGh-134" value="study_year_id" style="shape=partialRectangle;connectable=0;fillColor=none;top=0;left=0;bottom=0;right=0;align=left;spacingLeft=6;fontStyle=5;overflow=hidden;" vertex="1" parent="xyOZBkOWaDU2QLVAfHGh-132">
          <mxGeometry x="30" width="150" height="30" as="geometry">
            <mxRectangle width="150" height="30" as="alternateBounds" />
          </mxGeometry>
        </mxCell>
        <mxCell id="xyOZBkOWaDU2QLVAfHGh-135" value="" style="shape=tableRow;horizontal=0;startSize=0;swimlaneHead=0;swimlaneBody=0;fillColor=none;collapsible=0;dropTarget=0;points=[[0,0.5],[1,0.5]];portConstraint=eastwest;top=0;left=0;right=0;bottom=0;" vertex="1" parent="xyOZBkOWaDU2QLVAfHGh-131">
          <mxGeometry y="60" width="180" height="30" as="geometry" />
        </mxCell>
        <mxCell id="xyOZBkOWaDU2QLVAfHGh-136" value="" style="shape=partialRectangle;connectable=0;fillColor=none;top=0;left=0;bottom=0;right=0;editable=1;overflow=hidden;" vertex="1" parent="xyOZBkOWaDU2QLVAfHGh-135">
          <mxGeometry width="30" height="30" as="geometry">
            <mxRectangle width="30" height="30" as="alternateBounds" />
          </mxGeometry>
        </mxCell>
        <mxCell id="xyOZBkOWaDU2QLVAfHGh-137" value="date" style="shape=partialRectangle;connectable=0;fillColor=none;top=0;left=0;bottom=0;right=0;align=left;spacingLeft=6;overflow=hidden;" vertex="1" parent="xyOZBkOWaDU2QLVAfHGh-135">
          <mxGeometry x="30" width="150" height="30" as="geometry">
            <mxRectangle width="150" height="30" as="alternateBounds" />
          </mxGeometry>
        </mxCell>
        <mxCell id="xyOZBkOWaDU2QLVAfHGh-144" value="" style="edgeStyle=entityRelationEdgeStyle;fontSize=12;html=1;endArrow=ERoneToMany;rounded=0;" edge="1" parent="1" source="xyOZBkOWaDU2QLVAfHGh-132" target="xyOZBkOWaDU2QLVAfHGh-149">
          <mxGeometry width="100" height="100" relative="1" as="geometry">
            <mxPoint x="-1145" y="-1140" as="sourcePoint" />
            <mxPoint x="-1045" y="-1240" as="targetPoint" />
          </mxGeometry>
        </mxCell>
        <mxCell id="xyOZBkOWaDU2QLVAfHGh-145" value="study_plan" style="shape=table;startSize=30;container=1;collapsible=1;childLayout=tableLayout;fixedRows=1;rowLines=0;fontStyle=1;align=center;resizeLast=1;" vertex="1" parent="1">
          <mxGeometry x="-1160" y="-1340" width="180" height="130" as="geometry" />
        </mxCell>
        <mxCell id="xyOZBkOWaDU2QLVAfHGh-146" value="" style="shape=tableRow;horizontal=0;startSize=0;swimlaneHead=0;swimlaneBody=0;fillColor=none;collapsible=0;dropTarget=0;points=[[0,0.5],[1,0.5]];portConstraint=eastwest;top=0;left=0;right=0;bottom=1;" vertex="1" parent="xyOZBkOWaDU2QLVAfHGh-145">
          <mxGeometry y="30" width="180" height="30" as="geometry" />
        </mxCell>
        <mxCell id="xyOZBkOWaDU2QLVAfHGh-147" value="PK" style="shape=partialRectangle;connectable=0;fillColor=none;top=0;left=0;bottom=0;right=0;fontStyle=1;overflow=hidden;" vertex="1" parent="xyOZBkOWaDU2QLVAfHGh-146">
          <mxGeometry width="30" height="30" as="geometry">
            <mxRectangle width="30" height="30" as="alternateBounds" />
          </mxGeometry>
        </mxCell>
        <mxCell id="xyOZBkOWaDU2QLVAfHGh-148" value="study_plan" style="shape=partialRectangle;connectable=0;fillColor=none;top=0;left=0;bottom=0;right=0;align=left;spacingLeft=6;fontStyle=5;overflow=hidden;" vertex="1" parent="xyOZBkOWaDU2QLVAfHGh-146">
          <mxGeometry x="30" width="150" height="30" as="geometry">
            <mxRectangle width="150" height="30" as="alternateBounds" />
          </mxGeometry>
        </mxCell>
        <mxCell id="xyOZBkOWaDU2QLVAfHGh-149" value="" style="shape=tableRow;horizontal=0;startSize=0;swimlaneHead=0;swimlaneBody=0;fillColor=none;collapsible=0;dropTarget=0;points=[[0,0.5],[1,0.5]];portConstraint=eastwest;top=0;left=0;right=0;bottom=0;" vertex="1" parent="xyOZBkOWaDU2QLVAfHGh-145">
          <mxGeometry y="60" width="180" height="30" as="geometry" />
        </mxCell>
        <mxCell id="xyOZBkOWaDU2QLVAfHGh-150" value="" style="shape=partialRectangle;connectable=0;fillColor=none;top=0;left=0;bottom=0;right=0;editable=1;overflow=hidden;" vertex="1" parent="xyOZBkOWaDU2QLVAfHGh-149">
          <mxGeometry width="30" height="30" as="geometry">
            <mxRectangle width="30" height="30" as="alternateBounds" />
          </mxGeometry>
        </mxCell>
        <mxCell id="xyOZBkOWaDU2QLVAfHGh-151" value="study_year_id" style="shape=partialRectangle;connectable=0;fillColor=none;top=0;left=0;bottom=0;right=0;align=left;spacingLeft=6;overflow=hidden;" vertex="1" parent="xyOZBkOWaDU2QLVAfHGh-149">
          <mxGeometry x="30" width="150" height="30" as="geometry">
            <mxRectangle width="150" height="30" as="alternateBounds" />
          </mxGeometry>
        </mxCell>
        <mxCell id="xyOZBkOWaDU2QLVAfHGh-152" value="" style="shape=tableRow;horizontal=0;startSize=0;swimlaneHead=0;swimlaneBody=0;fillColor=none;collapsible=0;dropTarget=0;points=[[0,0.5],[1,0.5]];portConstraint=eastwest;top=0;left=0;right=0;bottom=0;" vertex="1" parent="xyOZBkOWaDU2QLVAfHGh-145">
          <mxGeometry y="90" width="180" height="30" as="geometry" />
        </mxCell>
        <mxCell id="xyOZBkOWaDU2QLVAfHGh-153" value="" style="shape=partialRectangle;connectable=0;fillColor=none;top=0;left=0;bottom=0;right=0;editable=1;overflow=hidden;" vertex="1" parent="xyOZBkOWaDU2QLVAfHGh-152">
          <mxGeometry width="30" height="30" as="geometry">
            <mxRectangle width="30" height="30" as="alternateBounds" />
          </mxGeometry>
        </mxCell>
        <mxCell id="xyOZBkOWaDU2QLVAfHGh-154" value="group_id" style="shape=partialRectangle;connectable=0;fillColor=none;top=0;left=0;bottom=0;right=0;align=left;spacingLeft=6;overflow=hidden;" vertex="1" parent="xyOZBkOWaDU2QLVAfHGh-152">
          <mxGeometry x="30" width="150" height="30" as="geometry">
            <mxRectangle width="150" height="30" as="alternateBounds" />
          </mxGeometry>
        </mxCell>
        <mxCell id="xyOZBkOWaDU2QLVAfHGh-161" value="" style="edgeStyle=entityRelationEdgeStyle;fontSize=12;html=1;endArrow=ERoneToMany;rounded=0;" edge="1" parent="1" source="xyOZBkOWaDU2QLVAfHGh-97" target="xyOZBkOWaDU2QLVAfHGh-152">
          <mxGeometry width="100" height="100" relative="1" as="geometry">
            <mxPoint x="-1090" y="-1070" as="sourcePoint" />
            <mxPoint x="-1030" y="-1270" as="targetPoint" />
          </mxGeometry>
        </mxCell>
        <mxCell id="xyOZBkOWaDU2QLVAfHGh-162" value="Table" style="shape=table;startSize=30;container=1;collapsible=1;childLayout=tableLayout;fixedRows=1;rowLines=0;fontStyle=1;align=center;resizeLast=1;" vertex="1" parent="1">
          <mxGeometry x="-1600" y="-1560" width="180" height="160" as="geometry" />
        </mxCell>
        <mxCell id="xyOZBkOWaDU2QLVAfHGh-163" value="" style="shape=tableRow;horizontal=0;startSize=0;swimlaneHead=0;swimlaneBody=0;fillColor=none;collapsible=0;dropTarget=0;points=[[0,0.5],[1,0.5]];portConstraint=eastwest;top=0;left=0;right=0;bottom=1;" vertex="1" parent="xyOZBkOWaDU2QLVAfHGh-162">
          <mxGeometry y="30" width="180" height="30" as="geometry" />
        </mxCell>
        <mxCell id="xyOZBkOWaDU2QLVAfHGh-164" value="PK" style="shape=partialRectangle;connectable=0;fillColor=none;top=0;left=0;bottom=0;right=0;fontStyle=1;overflow=hidden;" vertex="1" parent="xyOZBkOWaDU2QLVAfHGh-163">
          <mxGeometry width="30" height="30" as="geometry">
            <mxRectangle width="30" height="30" as="alternateBounds" />
          </mxGeometry>
        </mxCell>
        <mxCell id="xyOZBkOWaDU2QLVAfHGh-165" value="UniqueID" style="shape=partialRectangle;connectable=0;fillColor=none;top=0;left=0;bottom=0;right=0;align=left;spacingLeft=6;fontStyle=5;overflow=hidden;" vertex="1" parent="xyOZBkOWaDU2QLVAfHGh-163">
          <mxGeometry x="30" width="150" height="30" as="geometry">
            <mxRectangle width="150" height="30" as="alternateBounds" />
          </mxGeometry>
        </mxCell>
        <mxCell id="xyOZBkOWaDU2QLVAfHGh-166" value="" style="shape=tableRow;horizontal=0;startSize=0;swimlaneHead=0;swimlaneBody=0;fillColor=none;collapsible=0;dropTarget=0;points=[[0,0.5],[1,0.5]];portConstraint=eastwest;top=0;left=0;right=0;bottom=0;" vertex="1" parent="xyOZBkOWaDU2QLVAfHGh-162">
          <mxGeometry y="60" width="180" height="30" as="geometry" />
        </mxCell>
        <mxCell id="xyOZBkOWaDU2QLVAfHGh-167" value="" style="shape=partialRectangle;connectable=0;fillColor=none;top=0;left=0;bottom=0;right=0;editable=1;overflow=hidden;" vertex="1" parent="xyOZBkOWaDU2QLVAfHGh-166">
          <mxGeometry width="30" height="30" as="geometry">
            <mxRectangle width="30" height="30" as="alternateBounds" />
          </mxGeometry>
        </mxCell>
        <mxCell id="xyOZBkOWaDU2QLVAfHGh-168" value="Row 1" style="shape=partialRectangle;connectable=0;fillColor=none;top=0;left=0;bottom=0;right=0;align=left;spacingLeft=6;overflow=hidden;" vertex="1" parent="xyOZBkOWaDU2QLVAfHGh-166">
          <mxGeometry x="30" width="150" height="30" as="geometry">
            <mxRectangle width="150" height="30" as="alternateBounds" />
          </mxGeometry>
        </mxCell>
        <mxCell id="xyOZBkOWaDU2QLVAfHGh-169" value="" style="shape=tableRow;horizontal=0;startSize=0;swimlaneHead=0;swimlaneBody=0;fillColor=none;collapsible=0;dropTarget=0;points=[[0,0.5],[1,0.5]];portConstraint=eastwest;top=0;left=0;right=0;bottom=0;" vertex="1" parent="xyOZBkOWaDU2QLVAfHGh-162">
          <mxGeometry y="90" width="180" height="30" as="geometry" />
        </mxCell>
        <mxCell id="xyOZBkOWaDU2QLVAfHGh-170" value="" style="shape=partialRectangle;connectable=0;fillColor=none;top=0;left=0;bottom=0;right=0;editable=1;overflow=hidden;" vertex="1" parent="xyOZBkOWaDU2QLVAfHGh-169">
          <mxGeometry width="30" height="30" as="geometry">
            <mxRectangle width="30" height="30" as="alternateBounds" />
          </mxGeometry>
        </mxCell>
        <mxCell id="xyOZBkOWaDU2QLVAfHGh-171" value="Row 2" style="shape=partialRectangle;connectable=0;fillColor=none;top=0;left=0;bottom=0;right=0;align=left;spacingLeft=6;overflow=hidden;" vertex="1" parent="xyOZBkOWaDU2QLVAfHGh-169">
          <mxGeometry x="30" width="150" height="30" as="geometry">
            <mxRectangle width="150" height="30" as="alternateBounds" />
          </mxGeometry>
        </mxCell>
        <mxCell id="xyOZBkOWaDU2QLVAfHGh-172" value="" style="shape=tableRow;horizontal=0;startSize=0;swimlaneHead=0;swimlaneBody=0;fillColor=none;collapsible=0;dropTarget=0;points=[[0,0.5],[1,0.5]];portConstraint=eastwest;top=0;left=0;right=0;bottom=0;" vertex="1" parent="xyOZBkOWaDU2QLVAfHGh-162">
          <mxGeometry y="120" width="180" height="30" as="geometry" />
        </mxCell>
        <mxCell id="xyOZBkOWaDU2QLVAfHGh-173" value="" style="shape=partialRectangle;connectable=0;fillColor=none;top=0;left=0;bottom=0;right=0;editable=1;overflow=hidden;" vertex="1" parent="xyOZBkOWaDU2QLVAfHGh-172">
          <mxGeometry width="30" height="30" as="geometry">
            <mxRectangle width="30" height="30" as="alternateBounds" />
          </mxGeometry>
        </mxCell>
        <mxCell id="xyOZBkOWaDU2QLVAfHGh-174" value="Row 3" style="shape=partialRectangle;connectable=0;fillColor=none;top=0;left=0;bottom=0;right=0;align=left;spacingLeft=6;overflow=hidden;" vertex="1" parent="xyOZBkOWaDU2QLVAfHGh-172">
          <mxGeometry x="30" width="150" height="30" as="geometry">
            <mxRectangle width="150" height="30" as="alternateBounds" />
          </mxGeometry>
        </mxCell>
        <mxCell id="xyOZBkOWaDU2QLVAfHGh-175" value="study_plan_subject" style="shape=table;startSize=30;container=1;collapsible=1;childLayout=tableLayout;fixedRows=1;rowLines=0;fontStyle=1;align=center;resizeLast=1;" vertex="1" parent="1">
          <mxGeometry x="-1400" y="-1209" width="180" height="130" as="geometry" />
        </mxCell>
        <mxCell id="xyOZBkOWaDU2QLVAfHGh-176" value="" style="shape=tableRow;horizontal=0;startSize=0;swimlaneHead=0;swimlaneBody=0;fillColor=none;collapsible=0;dropTarget=0;points=[[0,0.5],[1,0.5]];portConstraint=eastwest;top=0;left=0;right=0;bottom=1;" vertex="1" parent="xyOZBkOWaDU2QLVAfHGh-175">
          <mxGeometry y="30" width="180" height="30" as="geometry" />
        </mxCell>
        <mxCell id="xyOZBkOWaDU2QLVAfHGh-177" value="PK" style="shape=partialRectangle;connectable=0;fillColor=none;top=0;left=0;bottom=0;right=0;fontStyle=1;overflow=hidden;" vertex="1" parent="xyOZBkOWaDU2QLVAfHGh-176">
          <mxGeometry width="30" height="30" as="geometry">
            <mxRectangle width="30" height="30" as="alternateBounds" />
          </mxGeometry>
        </mxCell>
        <mxCell id="xyOZBkOWaDU2QLVAfHGh-178" value="study_plan_subject_id" style="shape=partialRectangle;connectable=0;fillColor=none;top=0;left=0;bottom=0;right=0;align=left;spacingLeft=6;fontStyle=5;overflow=hidden;" vertex="1" parent="xyOZBkOWaDU2QLVAfHGh-176">
          <mxGeometry x="30" width="150" height="30" as="geometry">
            <mxRectangle width="150" height="30" as="alternateBounds" />
          </mxGeometry>
        </mxCell>
        <mxCell id="xyOZBkOWaDU2QLVAfHGh-185" value="" style="shape=tableRow;horizontal=0;startSize=0;swimlaneHead=0;swimlaneBody=0;fillColor=none;collapsible=0;dropTarget=0;points=[[0,0.5],[1,0.5]];portConstraint=eastwest;top=0;left=0;right=0;bottom=0;" vertex="1" parent="xyOZBkOWaDU2QLVAfHGh-175">
          <mxGeometry y="60" width="180" height="30" as="geometry" />
        </mxCell>
        <mxCell id="xyOZBkOWaDU2QLVAfHGh-186" value="" style="shape=partialRectangle;connectable=0;fillColor=none;top=0;left=0;bottom=0;right=0;editable=1;overflow=hidden;" vertex="1" parent="xyOZBkOWaDU2QLVAfHGh-185">
          <mxGeometry width="30" height="30" as="geometry">
            <mxRectangle width="30" height="30" as="alternateBounds" />
          </mxGeometry>
        </mxCell>
        <mxCell id="xyOZBkOWaDU2QLVAfHGh-187" value="study_plan_id" style="shape=partialRectangle;connectable=0;fillColor=none;top=0;left=0;bottom=0;right=0;align=left;spacingLeft=6;overflow=hidden;" vertex="1" parent="xyOZBkOWaDU2QLVAfHGh-185">
          <mxGeometry x="30" width="150" height="30" as="geometry">
            <mxRectangle width="150" height="30" as="alternateBounds" />
          </mxGeometry>
        </mxCell>
        <mxCell id="xyOZBkOWaDU2QLVAfHGh-179" value="" style="shape=tableRow;horizontal=0;startSize=0;swimlaneHead=0;swimlaneBody=0;fillColor=none;collapsible=0;dropTarget=0;points=[[0,0.5],[1,0.5]];portConstraint=eastwest;top=0;left=0;right=0;bottom=0;" vertex="1" parent="xyOZBkOWaDU2QLVAfHGh-175">
          <mxGeometry y="90" width="180" height="30" as="geometry" />
        </mxCell>
        <mxCell id="xyOZBkOWaDU2QLVAfHGh-180" value="" style="shape=partialRectangle;connectable=0;fillColor=none;top=0;left=0;bottom=0;right=0;editable=1;overflow=hidden;" vertex="1" parent="xyOZBkOWaDU2QLVAfHGh-179">
          <mxGeometry width="30" height="30" as="geometry">
            <mxRectangle width="30" height="30" as="alternateBounds" />
          </mxGeometry>
        </mxCell>
        <mxCell id="xyOZBkOWaDU2QLVAfHGh-181" value="subject_id" style="shape=partialRectangle;connectable=0;fillColor=none;top=0;left=0;bottom=0;right=0;align=left;spacingLeft=6;overflow=hidden;" vertex="1" parent="xyOZBkOWaDU2QLVAfHGh-179">
          <mxGeometry x="30" width="150" height="30" as="geometry">
            <mxRectangle width="150" height="30" as="alternateBounds" />
          </mxGeometry>
        </mxCell>
        <mxCell id="xyOZBkOWaDU2QLVAfHGh-188" value="" style="edgeStyle=entityRelationEdgeStyle;fontSize=12;html=1;endArrow=ERoneToMany;rounded=0;" edge="1" parent="1" source="xyOZBkOWaDU2QLVAfHGh-146" target="xyOZBkOWaDU2QLVAfHGh-185">
          <mxGeometry width="100" height="100" relative="1" as="geometry">
            <mxPoint x="-1070" y="-1040" as="sourcePoint" />
            <mxPoint x="-970" y="-1140" as="targetPoint" />
          </mxGeometry>
        </mxCell>
        <mxCell id="xyOZBkOWaDU2QLVAfHGh-189" value="" style="edgeStyle=entityRelationEdgeStyle;fontSize=12;html=1;endArrow=ERoneToMany;rounded=0;" edge="1" parent="1" source="xyOZBkOWaDU2QLVAfHGh-29" target="xyOZBkOWaDU2QLVAfHGh-75">
          <mxGeometry width="100" height="100" relative="1" as="geometry">
            <mxPoint x="-1520" y="-820" as="sourcePoint" />
            <mxPoint x="-1420" y="-920" as="targetPoint" />
          </mxGeometry>
        </mxCell>
      </root>
    </mxGraphModel>
  </diagram>
</mxfile>
